<?xml version="1.0" standalone="no"?>
<!DOCTYPE svg PUBLIC "-//W3C//DTD SVG 1.1//EN" "http://www.w3.org/Graphics/SVG/1.1/DTD/svg11.dtd" >
<svg xmlns="http://www.w3.org/2000/svg">
<metadata>Generated by IcoMoon</metadata>
<defs>
<font id="jv-icon2" horiz-adv-x="1024">
<font-face units-per-em="1024" ascent="960" descent="-64" />
<missing-glyph horiz-adv-x="1024" />
<glyph unicode="&#x20;" horiz-adv-x="512" d="" />
<glyph unicode="&#xe900;" glyph-name="academy" d="M937.203 843.277h-136.678v30.374c0 33.549-27.2 60.749-60.723 60.749h-455.59c-33.549 0-60.749-27.2-60.749-60.749v-30.374h-136.678c-25.178 0-45.555-20.403-45.555-45.555 0-142.848 73.267-269.824 186.33-350.285 19.904-122.33 116.454-218.534 238.886-238.029v-155.802h-106.304c-25.178 0-45.555-20.416-45.555-45.568s20.378-45.568 45.555-45.568h303.718c25.178 0 45.581 20.416 45.581 45.568s-20.403 45.568-45.581 45.568h-106.304v155.802c122.445 19.482 218.995 115.699 238.899 238.029 113.050 80.474 186.33 207.45 186.33 350.285-0.013 25.152-20.429 45.555-45.581 45.555zM223.462 571.622c-46.541 50.035-78.157 112.090-87.885 180.544h87.885v-180.544zM709.427 494.003c0-108.851-88.576-197.414-197.414-197.414-108.864 0-197.427 88.563-197.427 197.414v349.274h394.842v-349.274zM800.525 571.622v180.544h87.898c-9.728-68.454-41.37-130.509-87.898-180.544z" />
<glyph unicode="&#xe901;" glyph-name="add" d="M663.731 508.979h-91.149v91.162c0 33.574-27.213 60.774-60.774 60.774-33.574 0-60.774-27.2-60.774-60.774v-91.162h-91.162c-33.574 0-60.774-27.2-60.774-60.774 0-33.562 27.2-60.774 60.774-60.774h91.162v-91.149c0-33.562 27.2-60.774 60.774-60.774 33.562 0 60.774 27.213 60.774 60.774v91.149h91.149c33.562 0 60.774 27.213 60.774 60.774s-27.213 60.774-60.774 60.774zM511.795 934.4c-268.531 0-486.195-217.664-486.195-486.195s217.664-486.195 486.195-486.195c268.531 0 486.195 217.677 486.195 486.195 0.013 268.531-217.664 486.195-486.195 486.195zM511.795 53.171c-217.818 0-395.034 177.216-395.034 395.021 0 217.818 177.216 395.034 395.034 395.034s395.021-177.216 395.021-395.034c0.013-217.805-177.203-395.021-395.021-395.021z" />
<glyph unicode="&#xe902;" glyph-name="arrow-down" d="M677.965 569.702c-13.286 0-25.178-5.786-33.485-14.874l-0.115 0.090-133.555-145.677-133.555 145.69-0.115-0.090c-8.307 9.088-20.186 14.874-33.485 14.874-25.165 0-45.594-20.429-45.594-45.594 0-11.878 4.659-22.592 12.109-30.72l-0.115-0.090 167.155-182.349c8.64-9.408 20.8-14.784 33.6-14.784s24.96 5.376 33.6 14.784l167.142 182.349-0.115 0.090c7.45 8.128 12.109 18.842 12.109 30.72 0 25.165-20.403 45.581-45.581 45.581zM510.81 934.4c-268.531 0-486.272-217.728-486.272-486.272s217.728-486.272 486.272-486.272c268.544 0 486.272 217.741 486.272 486.272s-217.728 486.272-486.272 486.272zM510.81 53.043c-217.856 0-395.098 177.267-395.098 395.098 0 217.856 177.242 395.098 395.098 395.098 217.843 0 395.098-177.242 395.098-395.098-0.013-217.843-177.254-395.098-395.098-395.098z" />
<glyph unicode="&#xe903;" glyph-name="arrow-left" d="M510.259 935.091c-268.992 0-487.091-218.099-487.091-487.091s218.099-487.078 487.091-487.078c268.979 0 487.078 218.086 487.078 487.078s-218.099 487.091-487.078 487.091zM510.259 52.262c-218.227 0-395.763 177.523-395.763 395.738s177.549 395.75 395.763 395.75c218.202 0 395.75-177.549 395.75-395.75 0-218.214-177.549-395.738-395.75-395.738zM586.368 661.107c-11.904 0-22.643-4.672-30.771-12.134l-0.090 0.115-182.656-167.437c-9.421-8.653-14.797-20.838-14.797-33.651s5.376-25.011 14.797-33.651l182.656-167.45 0.090 0.141c8.141-7.462 18.88-12.122 30.771-12.122 25.216 0 45.645 20.442 45.645 45.645 0 13.325-5.786 25.229-14.886 33.536l0.090 0.115-145.946 133.786 145.946 133.786-0.090 0.115c9.101 8.333 14.886 20.211 14.886 33.536 0 25.216-20.442 45.67-45.645 45.67z" />
<glyph unicode="&#xe904;" glyph-name="arrow-right" d="M510.95 934.502c-268.608 0-486.4-217.792-486.4-486.4s217.792-486.4 486.4-486.4 486.413 217.792 486.413 486.4c0 268.621-217.805 486.4-486.413 486.4zM510.95 52.902c-217.907 0-395.2 177.293-395.2 395.2s177.293 395.2 395.2 395.2c217.907 0 395.213-177.306 395.213-395.2 0-217.92-177.306-395.2-395.213-395.2zM465.766 648.909l-0.115-0.115c-8.141 7.462-18.829 12.109-30.694 12.109-25.178 0-45.606-20.429-45.606-45.606 0-13.299 5.76-25.178 14.848-33.485l-0.051-0.115 145.702-133.594-145.715-133.606 0.051-0.115c-9.075-8.307-14.848-20.186-14.848-33.485 0-25.178 20.429-45.606 45.606-45.606 11.878 0 22.566 4.659 30.694 12.109l0.115-0.128 182.4 167.206c9.37 8.653 14.771 20.813 14.771 33.613s-5.402 24.973-14.771 33.6l-182.387 167.219z" />
<glyph unicode="&#xe905;" glyph-name="battery" d="M803.84 174.566h-715.136c-34.816 0-63.104 28.288-63.104 63.104v420.659c0 34.79 28.288 63.104 63.104 63.104h715.136c34.765 0 63.104-28.288 63.104-63.104v-420.659c0-34.816-28.314-63.104-63.104-63.104zM109.747 258.662h673.075v378.624h-673.075v-378.624zM914.278 288.512h-42.086c-46.387 0-84.122 37.76-84.122 84.122v126.208c0 46.413 37.76 84.147 84.122 84.147h42.086c46.413 0 84.122-37.76 84.122-84.147v-126.208c0-46.387-37.734-84.122-84.122-84.122zM872.192 498.816v-126.208h42.138l-0.077 126.208h-42.061zM646.067 204.211c-23.194 0-42.061 18.816-42.061 42.061v378.906c0 23.219 18.842 42.086 42.061 42.086 23.27 0 42.086-18.842 42.086-42.086v-378.931c0-23.219-18.816-42.035-42.086-42.035z" />
<glyph unicode="&#xe906;" glyph-name="block" d="M396.186 494.336h-301.107c-38.298 0-69.478 31.155-69.478 69.478v301.107c0 38.298 31.181 69.478 69.478 69.478h301.107c38.323 0 69.478-31.181 69.478-69.478v-301.107c0-38.323-31.155-69.478-69.478-69.478zM118.246 586.982h254.771v254.771h-254.771v-254.771zM928.922 494.336h-301.133c-38.298 0-69.478 31.155-69.478 69.478v301.107c0.026 38.298 31.181 69.478 69.478 69.478h301.133c38.298 0 69.478-31.181 69.478-69.478v-301.107c0-38.323-31.181-69.478-69.478-69.478zM650.982 586.982h254.771v254.771h-254.771v-254.771zM396.186-38.4h-301.107c-38.298 0-69.478 31.181-69.478 69.478v301.133c0 38.298 31.181 69.478 69.478 69.478h301.107c38.323 0 69.478-31.181 69.478-69.478v-301.133c0-38.298-31.155-69.478-69.478-69.478zM118.246 54.246h254.771v254.771h-254.771v-254.771zM928.922-38.4h-301.133c-38.298 0-69.478 31.181-69.478 69.478v301.133c0 38.298 31.181 69.478 69.478 69.478h301.133c38.298 0 69.478-31.181 69.478-69.478v-301.133c0-38.298-31.181-69.478-69.478-69.478zM650.982 54.246h254.771v254.771h-254.771v-254.771z" />
<glyph unicode="&#xe907;" glyph-name="block2" d="M928.87 494.31h-833.792c-38.323 0-69.478 31.181-69.478 69.478v277.939c0 38.323 31.155 69.478 69.478 69.478h833.792c38.349 0 69.504-31.155 69.504-69.478v-277.939c0-38.298-31.155-69.478-69.504-69.478zM118.246 586.957h787.507v231.629h-787.507v-231.629zM928.87-15.232h-833.792c-38.323 0-69.478 31.155-69.478 69.478v277.965c0 38.323 31.155 69.478 69.478 69.478h833.792c38.349 0 69.504-31.155 69.504-69.478v-277.939c0-38.349-31.155-69.504-69.504-69.504zM118.246 77.389h787.507v231.629h-787.507v-231.629z" />
<glyph unicode="&#xe908;" glyph-name="arrow-up" d="M711.744 402.829l-167.206 182.4c-8.653 9.408-20.813 14.784-33.613 14.784s-24.973-5.376-33.6-14.784l-167.206-182.4 0.115-0.090c-7.45-8.141-12.109-18.867-12.109-30.733 0-25.178 20.429-45.606 45.606-45.606 13.299 0 25.178 5.798 33.485 14.874l0.115-0.090 133.594 145.741 133.594-145.741 0.128 0.090c8.307-9.075 20.186-14.874 33.485-14.874 25.178 0 45.606 20.429 45.606 45.606 0 11.878-4.659 22.605-12.109 30.733l0.115 0.090zM510.938 934.4c-268.608 0-486.4-217.792-486.4-486.4s217.792-486.4 486.4-486.4 486.4 217.805 486.4 486.4c0 268.621-217.792 486.4-486.4 486.4zM510.938 52.8c-217.907 0-395.2 177.306-395.2 395.2s177.293 395.2 395.2 395.2c217.907 0 395.2-177.293 395.2-395.2s-177.293-395.2-395.2-395.2z" />
<glyph unicode="&#xe909;" glyph-name="atom" d="M511.923 934.4c-268.57 0-486.323-217.728-486.323-486.323s217.754-486.323 486.323-486.323c268.57 0 486.323 217.728 486.323 486.323s-217.741 486.323-486.323 486.323zM304.973 784.026l104.576-224.282c-3.226-2.97-6.323-6.067-9.293-9.293l-224.282 104.602c32.41 52.39 76.582 96.589 128.998 128.973zM511.923 52.928c-217.869 0-395.136 177.267-395.136 395.149 0 43.507 7.36 85.274 20.39 124.454l224.755-104.806c-0.858-6.502-1.984-12.915-1.984-19.648 0-83.955 68.032-151.987 151.974-151.987 6.707 0 13.12 1.139 19.622 1.997l104.806-224.781c-39.181-13.043-80.896-20.378-124.429-20.378zM451.136 448.077c0 33.51 27.251 60.787 60.787 60.787 33.549 0 60.8-27.277 60.8-60.787s-27.251-60.8-60.8-60.8c-33.536 0-60.787 27.29-60.787 60.8zM718.874 112.090l-104.602 224.32c3.277 2.957 6.349 6.042 9.318 9.318l224.282-104.602c-32.384-52.429-76.57-96.614-128.998-129.037zM661.952 428.493c0.819 6.464 1.958 12.877 1.958 19.584 0 83.942-68.032 151.974-151.987 151.974-6.694 0-13.146-1.126-19.648-1.984l-104.806 224.755c39.181 13.069 80.947 20.39 124.454 20.39 217.882 0 395.149-177.267 395.149-395.136 0-43.52-7.334-85.248-20.365-124.442l-224.755 104.858z" />
<glyph unicode="&#xe90a;" glyph-name="bell" d="M885.837 257.114c-58.534 50.611-100.403 185.139-100.403 343.091 0 119.59-76.877 220.979-183.808 258.099-7.206 43.136-44.442 76.096-89.626 76.096s-82.419-32.96-89.626-76.096c-106.931-37.12-183.795-138.496-183.795-258.099 0-157.926-41.83-292.416-100.403-343.066-32.691-28.301-51.507-69.389-51.507-112.653 0-50.33 40.794-91.136 91.149-91.136h243.046c0-50.33 40.794-91.149 91.149-91.149s91.136 40.819 91.136 91.149h243.046c50.355 0 91.149 40.806 91.149 91.136-0.013 43.264-18.778 84.352-51.507 112.627zM177.805 144.486c0 16.794 7.296 32.73 19.968 43.699 81.382 70.374 131.942 228.25 131.942 412.019 0 100.518 81.766 182.285 182.285 182.285 100.531 0 182.285-81.766 182.285-182.285 0-183.77 50.56-341.67 131.942-412.045 12.698-10.97 19.968-26.893 19.968-43.674h-668.39z" />
<glyph unicode="&#xe90b;" glyph-name="book" d="M942.81 864.909h-194.56c-102.118 0-188.045-29.773-236.25-76.403-48.205 46.63-134.131 76.403-236.25 76.403h-194.56c-30.643 0-55.59-24.934-55.59-55.578v-639.258c0-30.669 24.947-55.603 55.59-55.603h194.56c74.099 0 154.611-31.834 183.475-61.99 13.082-13.645 31.219-21.389 50.138-21.389h5.542c18.803 0 36.787 7.68 49.715 21.299 28.774 30.157 109.338 62.080 183.629 62.080h194.56c30.643 0 55.59 24.922 55.59 55.603v639.258c0 30.643-24.947 55.578-55.59 55.578zM470.31 152.269c-49.395 28.48-117.312 45.581-194.56 45.581h-166.771v583.68h166.771c118.771 0 194.56-49.395 194.56-83.379v-545.882zM915.008 197.85h-166.758c-77.248 0-145.165-17.101-194.56-45.581v545.882c0 33.984 75.789 83.379 194.56 83.379h166.758v-583.68z" />
<glyph unicode="&#xe90c;" glyph-name="bookmark" d="M816.115 934.4h-608.23c-33.562 0-60.813-27.29-60.813-60.826v-866.726c0-16.269 8.64-31.296 22.72-39.462 14.080-8.154 31.424-8.243 45.53-0.166l296.678 169.562 296.691-169.549c7.014-4.006 14.822-5.99 22.643-5.99 7.898 0 15.795 2.048 22.899 6.144 14.042 8.166 22.707 23.194 22.707 39.462v866.726c0 33.536-27.302 60.826-60.826 60.826zM785.702 85.466l-251.072 143.475c-7.002 4.006-14.81 6.003-22.63 6.003s-15.629-1.997-22.63-6.003l-251.072-143.475v757.696h547.405v-757.696z" />
<glyph unicode="&#xe90d;" glyph-name="clock2" d="M512-38.4c-268.211 0-486.4 218.189-486.4 486.4s218.189 486.4 486.4 486.4c268.211 0 486.4-218.189 486.4-486.4s-218.189-486.4-486.4-486.4zM512 843.443c-218.010 0-395.418-177.408-395.418-395.443s177.408-395.443 395.418-395.443c218.035 0 395.469 177.434 395.469 395.443-0.026 218.035-177.434 395.443-395.469 395.443zM612.659 298.65c-9.165 0-18.432 2.662-26.496 8.32l-123.878 86.17c-12.467 8.704-19.891 22.938-19.891 38.118v213.965c0 25.651 20.813 46.413 46.413 46.413 25.651 0 46.413-20.787 46.413-46.413v-189.747l103.987-72.346c21.043-14.643 26.214-43.546 11.597-64.563-9.062-12.979-23.475-19.917-38.144-19.917z" />
<glyph unicode="&#xe90e;" glyph-name="brush" d="M998.349 736.973c0 16.282-6.336 31.578-17.805 42.982l-91.302 91.29c-20.531 20.429-54.669 23.181-78.208 6.4l-213.146-152.256c-27.456 7.296-56.166 11.584-85.914 11.584-184.678 0-334.387-149.722-334.387-334.4 0-119.616-60.378-225.075-151.987-288.102 126.554-68.288 271.629-107.072 425.587-107.072 218.253 0 395.187 176.934 395.187 395.174 0 29.773-4.275 58.483-11.571 85.939l152.179 212.992c7.424 10.406 11.366 22.63 11.366 35.469zM451.187 98.598c-91.008 0-181.376 15.437-266.637 45.197 54.016 74.317 84.25 164.621 84.25 258.778 0 134.067 109.082 243.2 243.187 243.2 134.093 0 243.187-109.133 243.187-243.2-0.013-167.603-136.384-303.974-303.987-303.974zM791.821 585.267c-25.318 38.746-58.419 71.834-97.152 97.165l148.39 106.010 54.771-54.771-106.010-148.403z" />
<glyph unicode="&#xe90f;" glyph-name="button" d="M785.6 387.2h-547.2c-117.53 0-212.8-95.296-212.8-212.8 0-117.555 95.27-212.8 212.8-212.8h547.2c117.53 0 212.8 95.245 212.8 212.8 0 117.504-95.27 212.8-212.8 212.8zM611.098 52.8h-372.698c-67.059 0-121.6 54.502-121.6 121.6 0 67.021 54.541 121.6 121.6 121.6h372.698c-24.077-34.496-38.298-76.352-38.298-121.6 0-45.222 14.221-87.104 38.298-121.6zM785.6 52.8c-67.072 0-121.6 54.502-121.6 121.6 0 67.021 54.528 121.6 121.6 121.6 67.046 0 121.6-54.579 121.6-121.6 0-67.098-54.554-121.6-121.6-121.6zM238.4 508.8h547.2c117.53 0 212.8 95.232 212.8 212.8 0 117.504-95.27 212.8-212.8 212.8h-547.2c-117.53 0-212.8-95.296-212.8-212.8 0-117.568 95.27-212.8 212.8-212.8zM412.902 843.2h372.698c67.046 0 121.6-54.566 121.6-121.6 0-67.098-54.554-121.6-121.6-121.6h-372.698c24.077 34.496 38.298 76.352 38.298 121.6s-14.221 87.104-38.298 121.6zM238.4 843.2c67.059 0 121.6-54.566 121.6-121.6 0-67.098-54.541-121.6-121.6-121.6s-121.6 54.502-121.6 121.6c0 67.034 54.541 121.6 121.6 121.6z" />
<glyph unicode="&#xe910;" glyph-name="calendar" d="M937.6 812.8h-121.6v75.994c0 25.178-20.429 45.606-45.594 45.606s-45.606-20.429-45.606-45.606v-75.994h-425.6v75.994c0 25.178-20.429 45.606-45.594 45.606s-45.606-20.429-45.606-45.606v-75.994h-121.6c-33.574 0-60.8-27.226-60.8-60.8v-729.6c0-33.574 27.226-60.8 60.8-60.8h851.2c33.574 0 60.8 27.226 60.8 60.8v729.6c0 33.574-27.226 60.8-60.8 60.8zM907.2 52.8h-790.4v486.4h790.4v-486.4zM907.2 630.4h-790.4v91.2h790.4v-91.2z" />
<glyph unicode="&#xe911;" glyph-name="camera" d="M937.6 752h-152l-121.6 121.587h-304l-121.6-121.587h-152c-33.574 0-60.8-27.251-60.8-60.787v-608c0-33.626 27.226-60.8 60.8-60.8h851.2c33.574 0 60.8 27.174 60.8 60.8v608c0 33.536-27.226 60.787-60.8 60.787zM907.2 113.6h-790.4v547.2h159.386l121.587 121.6h228.442l121.6-121.6h159.386v-547.2zM512 630.4c-117.504 0-212.8-95.296-212.8-212.8s95.296-212.787 212.8-212.787 212.8 95.283 212.8 212.787-95.296 212.8-212.8 212.8zM512 296c-67.034 0-121.6 54.515-121.6 121.6 0 67.034 54.566 121.6 121.6 121.6s121.613-54.566 121.613-121.6c0-67.085-54.579-121.6-121.613-121.6z" />
<glyph unicode="&#xe912;" glyph-name="check" d="M711.795 599.45c-12.262 0.512-24.691-3.622-34.061-13.005l-211.085-211.085-119.821 119.821c-9.382 9.382-21.811 13.517-34.074 13.018-11.059-0.448-22.016-4.57-30.451-13.018-8.435-8.435-12.557-19.392-13.018-30.438-0.512-12.262 3.622-24.691 13.018-34.074l152.090-152.090c8.909-8.909 20.582-13.376 32.256-13.376s23.347 4.467 32.269 13.376l243.341 243.341c9.382 9.382 13.517 21.798 13.018 34.074-0.448 11.046-4.57 22.016-13.018 30.451s-19.405 12.557-30.464 13.005zM512.269 934.4c-268.762 0-486.669-217.907-486.669-486.669 0-268.787 217.907-486.682 486.669-486.682 268.774 0 486.669 217.894 486.669 486.669 0.013 268.774-217.882 486.682-486.669 486.682zM512.269 52.301c-218.022 0-395.43 177.382-395.43 395.43 0 218.022 177.395 395.43 395.43 395.43s395.43-177.395 395.43-395.43c0-218.048-177.382-395.43-395.43-395.43z" />
<glyph unicode="&#xe913;" glyph-name="clip" d="M924.531 815.808l-4.557 4.506c-100.736 97.562-262.131 96.538-361.651-2.982l-460.634-460.749c-34.714-34.79-72.090-97.933-72.090-154.458 0-53.082 20.71-103.040 58.253-140.544 37.606-37.581 87.565-58.317 140.749-58.317h0.026c53.171 0.064 103.155 20.736 140.723 58.368l397.658 397.67c27.341 27.302 42.266 65.139 40.934 103.91-1.254 35.558-15.795 68.954-40.934 94.029-26.458 26.432-61.619 40.986-99.021 40.986s-72.563-14.554-98.931-40.986l-304.576-304.563c-7.68-7.603-12.454-18.074-12.454-29.696 0-23.014 18.65-41.69 41.69-41.69 11.507 0 21.901 4.659 29.453 12.16h0.026l304.832 304.883c10.867 10.918 25.92 16.23 40.883 15.962 14.362-0.218 28.659-5.594 39.142-16.013 10.15-10.15 16.013-23.667 16.538-37.939 0.538-15.91-5.35-30.899-16.563-42.074l-397.645-397.683c-21.85-21.875-50.867-33.869-81.754-33.933h-0.026c-30.899 0-59.942 12.058-81.792 33.933-21.798 21.773-33.805 50.765-33.805 81.536 0 25.894 21.824 69.606 47.667 95.45l460.621 460.8c67.469 67.533 177.011 68.019 245.082 1.626l4.429-4.454c65.318-68.25 64.384-176.934-2.739-244.083l-381.235-381.261c-7.654-7.552-12.403-18.022-12.403-29.645 0-23.014 18.675-41.69 41.69-41.69 11.507 0 21.875 4.659 29.427 12.211l0.026-0.051 381.466 381.491c100.083 100.096 100.57 262.592 1.498 363.29z" />
<glyph unicode="&#xe914;" glyph-name="clock" d="M731.661 495.066h-172.595v203.981c0 26.022-21.069 47.066-47.066 47.066-26.010 0-47.066-21.056-47.066-47.066v-298.112h266.726c25.984 0 47.078 21.069 47.078 47.066 0 26.010-21.094 47.066-47.078 47.066zM512 934.4c-268.634 0-486.4-217.766-486.4-486.4 0-268.608 217.766-486.4 486.4-486.4s486.4 217.792 486.4 486.4c0 268.634-217.766 486.4-486.4 486.4zM512 55.731c-216.294 0-392.256 175.974-392.256 392.269s175.962 392.256 392.256 392.256c216.294 0 392.269-175.962 392.269-392.256s-175.974-392.269-392.269-392.269z" />
<glyph unicode="&#xe915;" glyph-name="close" d="M692.173 587.021c-0.448 11.034-4.57 21.939-12.992 30.362s-19.341 12.544-30.374 12.992c-12.275 0.512-24.666-3.622-34.035-12.992l-104.41-104.41-104.41 104.41c-9.37 9.37-21.773 13.491-34.048 12.992-11.034-0.448-21.939-4.557-30.362-12.992-8.422-8.422-12.544-19.328-12.992-30.362-0.512-12.275 3.622-24.678 12.992-34.048l104.41-104.41-104.41-104.41c-9.37-9.357-13.491-21.76-12.992-34.035 0.448-11.021 4.557-21.939 12.992-30.362 8.422-8.422 19.328-12.544 30.362-12.992 12.275-0.499 24.678 3.61 34.048 12.992l104.41 104.41 104.41-104.41c9.37-9.37 21.76-13.491 34.035-12.992 11.034 0.435 21.952 4.557 30.374 12.992 8.41 8.422 12.531 19.341 12.992 30.362 0.499 12.275-3.622 24.678-12.992 34.035l-104.41 104.41 104.41 104.41c9.37 9.382 13.491 21.773 12.992 34.048zM510.374 934.4c-268.301 0-485.837-217.523-485.837-485.824s217.536-485.824 485.837-485.824c268.288 0 485.837 217.523 485.837 485.824s-217.549 485.824-485.837 485.824zM510.374 53.837c-217.651 0-394.739 177.088-394.739 394.739s177.088 394.739 394.739 394.739c217.651 0 394.739-177.088 394.739-394.739s-177.088-394.739-394.739-394.739z" />
<glyph unicode="&#xe916;" glyph-name="combass" d="M694.4 661.018c-3.046 0-6.029-0.474-8.819-1.306l-217.715-66.022c-48.461-14.669-86.669-52.902-101.325-101.299l-66.022-217.715c-0.832-2.803-1.306-5.773-1.306-8.858 0-16.806 13.619-30.4 30.4-30.4 3.085 0 6.054 0.474 8.845 1.318l217.728 66.022c48.422 14.669 86.618 52.902 101.312 101.286l65.997 217.728c0.858 2.79 1.318 5.76 1.318 8.845-0.013 16.794-13.606 30.4-30.413 30.4zM512 387.418c-33.587 0-60.8 27.238-60.8 60.8 0 33.587 27.213 60.8 60.8 60.8 33.562 0 60.8-27.213 60.8-60.8 0-33.562-27.238-60.8-60.8-60.8zM512 934.618c-268.646 0-486.4-217.779-486.4-486.4 0-268.608 217.754-486.4 486.4-486.4 268.634 0 486.4 217.792 486.4 486.4s-217.766 486.4-486.4 486.4zM512 53.018c-217.907 0-395.2 177.306-395.2 395.2 0 217.907 177.293 395.2 395.2 395.2 217.894 0 395.2-177.293 395.2-395.2s-177.306-395.2-395.2-395.2z" />
<glyph unicode="&#xe917;" glyph-name="comment" d="M937.638 904.013h-851.238c-33.574 0-60.8-27.226-60.8-60.8v-638.438c0-33.574 27.226-60.8 60.8-60.8h121.6v-91.187c0-33.613 27.226-60.8 60.8-60.8h30.4l152 151.987h486.413c33.574 0 60.8 27.226 60.8 60.8v638.438c0.026 33.574-27.2 60.8-60.774 60.8zM907.238 235.174h-493.811l-114.214-114.214v114.214h-182.413v577.626h790.426v-577.626z" />
<glyph unicode="&#xe918;" glyph-name="connect" d="M580.89 590.426c-10.598 6.81-22.989 8.678-34.406 6.131-11.315-2.522-21.683-9.331-28.429-19.866-6.784-10.573-8.653-22.899-6.131-34.266 2.483-11.379 9.306-21.798 19.878-28.582 43.866-28.109 70.042-75.853 70.042-127.654 0-40.512-15.744-78.579-44.403-107.213l-182.003-181.965c-28.608-28.634-66.701-44.429-107.213-44.429-83.61 0-151.642 68.019-151.642 151.642 0 40.512 15.782 78.579 44.429 107.213l86.31 86.323c9.088 9.101 13.542 21.082 13.325 32.998-0.205 11.379-4.646 22.656-13.325 31.334-8.883 8.883-20.531 13.338-32.166 13.338-11.648 0-23.283-4.442-32.166-13.338l-86.298-86.336c-45.862-45.786-71.091-106.726-71.091-171.533 0-133.786 108.838-242.624 242.624-242.624 64.832 0 125.747 25.242 171.571 71.078l181.965 181.978c45.811 45.786 71.053 106.739 71.053 171.533 0 82.957-41.83 159.283-111.923 204.237zM753.459 932.083c-64.806 0-125.722-25.229-171.533-71.078l-181.965-181.939c-45.85-45.786-71.078-106.739-71.078-171.533 0-82.957 41.856-159.309 111.923-204.262 10.637-6.81 23.014-8.653 34.406-6.106 11.315 2.483 21.683 9.306 28.429 19.84 6.784 10.598 8.653 22.925 6.131 34.304-2.483 11.379-9.306 21.798-19.866 28.544-43.866 28.134-70.042 75.878-70.042 127.68 0 40.512 15.782 78.566 44.429 107.213l181.965 181.939c28.634 28.634 66.726 44.429 107.213 44.429 83.61 0 151.642-68.032 151.642-151.616 0-40.512-15.744-78.579-44.39-107.213l-86.336-86.336c-9.088-9.088-13.542-21.082-13.325-32.998 0.205-11.379 4.646-22.656 13.325-31.334 8.883-8.883 20.531-13.338 32.166-13.338 11.674 0 23.309 4.454 32.166 13.338l86.336 86.336c45.811 45.786 71.053 106.739 71.053 171.533-0.026 133.76-108.864 242.598-242.65 242.598z" />
<glyph unicode="&#xe919;" glyph-name="cook" d="M800.806 843.226c-26.035 0-51.418-5.171-75.162-15.168-47.45 65.818-126.707 106.368-213.632 106.368s-166.195-40.55-213.67-106.368c-23.718 9.997-49.101 15.168-75.149 15.168-108.954 0-197.606-88.653-197.606-197.606 0-93.248 64.986-171.418 152-192.077v-400.73c0.013-50.406 40.819-91.213 91.213-91.213h486.4c50.355 0 91.2 40.806 91.2 91.2v400.73c87.027 20.659 152.013 98.829 152.013 192.077 0 108.966-88.653 197.619-197.606 197.619zM755.2 52.8h-486.4v60.8h486.4v-60.8zM755.2 204.8h-486.4v249.178c31.885 7.603 61.542 22.451 85.939 44.352 44.8-32.358 99.93-50.317 157.261-50.317s112.461 17.958 157.222 50.317c24.435-21.901 54.067-36.749 85.978-44.352v-249.178zM800.806 539.213c-35.955 0-69.222 18.138-89.062 48.525-7.693 11.776-20.365 19.354-34.381 20.531-1.28 0.090-2.547 0.141-3.802 0.141-12.672 0-24.832-5.312-33.51-14.682-31.974-34.65-78.656-54.515-128.051-54.515-49.434 0-96.064 19.866-128.038 54.515-9.562 10.355-23.245 15.526-37.35 14.541-14.016-1.178-26.688-8.755-34.381-20.531-19.802-30.374-53.082-48.525-89.037-48.525-58.662 0-106.406 47.744-106.406 106.406s47.744 106.406 106.406 106.406c22.925 0 45.133-7.693 64.154-22.259 11.11-8.499 25.51-11.379 39.040-7.962 13.542 3.482 24.768 12.979 30.4 25.779 25.613 58.048 86.541 95.642 155.213 95.642 68.659 0 129.587-37.53 155.213-95.629 5.632-12.8 16.819-22.323 30.362-25.805 13.581-3.418 27.942-0.538 39.053 7.962 19.046 14.579 41.229 22.259 64.179 22.259 58.675 0 106.406-47.731 106.406-106.406-0.013-58.65-47.744-106.394-106.406-106.394z" />
<glyph unicode="&#xe91a;" glyph-name="crop" d="M983.514 855.142c8.256 8.243 13.35 19.622 13.35 32.192 0 25.139-20.403 45.53-45.53 45.53-12.57 0-23.962-5.094-32.192-13.338l-168.781-168.781h-512.294v75.878c0 25.126-20.39 45.53-45.53 45.53s-45.53-20.39-45.53-45.53v-75.878h-75.878c-25.139 0-45.53-20.39-45.53-45.517 0-25.165 20.39-45.53 45.53-45.53h75.878v-531.162c0-25.139 20.39-45.53 45.53-45.53h531.162v-75.891c0-25.126 20.39-45.53 45.53-45.53 25.126 0 45.53 20.403 45.53 45.53v75.891h75.878c25.139 0 45.542 20.39 45.542 45.53s-20.403 45.53-45.542 45.53h-75.878v512.307l168.755 168.768zM238.067 659.699h421.248l-421.248-421.248v421.248zM723.699 174.067h-421.261l421.261 421.248v-421.248z" />
<glyph unicode="&#xe91b;" glyph-name="danger" d="M360 508.8c-50.355 0-91.2-40.845-91.2-91.2s40.845-91.2 91.2-91.2c50.355 0 91.2 40.845 91.2 91.2s-40.845 91.2-91.2 91.2zM664 508.8c-50.355 0-91.2-40.845-91.2-91.2s40.845-91.2 91.2-91.2 91.213 40.845 91.213 91.2-40.858 91.2-91.213 91.2zM512 934.4c-251.866 0-456-204.16-456-456 0-134.899 58.906-255.731 152-339.213v-116.787c0-33.613 27.226-60.8 60.8-60.8h486.413c33.574 0 60.787 27.187 60.787 60.8v116.787c93.094 83.482 152 204.314 152 339.213 0 251.84-204.122 456-456 456zM755.098 207.091l-30.298-27.162v-127.13h-60.8v91.2h-60.8v-91.2h-60.8v91.2h-60.8v-91.2h-60.8v91.2h-60.8v-91.2h-60.8v127.13l-30.31 27.162c-77.338 69.338-121.69 168.23-121.69 271.309 0 201.126 163.635 364.8 364.8 364.8s364.8-163.674 364.8-364.8c0-103.078-44.352-201.971-121.702-271.309z" />
<glyph unicode="&#xe91c;" glyph-name="docs1" d="M633.869 934.4h-426.534c-33.651 0-60.941-27.277-60.941-60.928v-853.069c0-33.651 27.29-60.928 60.941-60.928h609.331c33.651 0 60.928 27.277 60.928 60.928v670.259l-243.725 243.738zM786.202 50.88h-548.403v792.115h365.606v-182.797h182.797v-609.318z" />
<glyph unicode="&#xe91d;" glyph-name="documentation" d="M329.6 326.4h364.8v91.2h-364.8v-91.2zM816 843.2h-91.2v60.8c0 16.794-13.594 30.4-30.4 30.4h-364.8c-16.806 0-30.4-13.606-30.4-30.4v-60.8h-91.2c-33.574 0-60.8-27.226-60.8-60.8v-760c0-33.6 27.226-60.8 60.8-60.8h608c33.574 0 60.8 27.2 60.8 60.8v760c0 33.574-27.226 60.8-60.8 60.8zM390.4 843.2h243.2v-91.2h-243.2v91.2zM785.6 52.8h-547.2v699.2h60.8v-60.8c0-16.806 13.606-30.4 30.4-30.4h364.8c16.806 0 30.4 13.606 30.4 30.4v60.8h60.8v-699.2zM329.6 478.4h364.8v91.2h-364.8v-91.2z" />
<glyph unicode="&#xe91e;" glyph-name="download" d="M883.392 576.666c0 116.070-92.262 210.381-207.411 214.093-54.976 69.773-140.032 114.739-235.776 114.739-159.578 0-289.69-124.595-299.302-281.754-68.506-35.789-115.302-107.392-115.302-190.042 0-118.451 96-214.451 214.438-214.451h57.19c23.68 0 42.893 19.213 42.893 42.893s-19.213 42.893-42.893 42.893h-57.19c-70.95 0-128.666 57.728-128.666 128.678 0 48 26.534 91.699 69.261 114.010l42.918 22.451 2.957 48.358c6.899 112.806 100.774 201.19 213.696 201.19 65.958 0 127.322-29.914 168.41-82.048l24.717-31.347 39.885-1.293c69.76-2.266 124.403-58.637 124.403-128.358v-57.152l52.774-22.003c37.427-15.616 61.606-51.891 61.606-92.403 0-55.181-44.902-100.083-100.070-100.083h-57.19c-23.68 0-42.88-19.213-42.88-42.893s19.2-42.893 42.88-42.893h57.19c102.656 0 185.856 83.213 185.856 185.869-0.038 77.299-47.245 143.539-114.394 171.546zM556.301 521.216c-7.77 7.757-18.483 12.557-30.323 12.557s-22.566-4.8-30.323-12.557l-114.368-114.381c-7.77-7.757-12.557-18.483-12.557-30.323 0-23.68 19.2-42.893 42.88-42.893 11.84 0 22.566 4.8 30.323 12.557l41.165 41.152v-268.506c-17.254-13.043-28.595-33.562-28.595-56.845 0-39.475 32-71.475 71.475-71.475s71.488 32 71.488 71.475c0 23.283-11.315 43.814-28.595 56.845v268.518l41.165-41.152c7.757-7.757 18.47-12.557 30.323-12.557 23.706 0 42.893 19.213 42.893 42.893 0 11.84-4.8 22.566-12.57 30.323l-114.381 114.368z" />
<glyph unicode="&#xe91f;" glyph-name="download2" d="M314.406 432.794c0-12.582 5.107-23.987 13.363-32.243l152-152c8.256-8.269 19.648-13.363 32.243-13.363s23.987 5.094 32.243 13.363l152 152c8.269 8.256 13.363 19.648 13.363 32.243 0 25.178-20.403 45.606-45.606 45.606-12.582 0-23.987-5.107-32.243-13.363l-74.163-74.163v497.92c0 25.178-20.403 45.606-45.606 45.606-25.178 0-45.606-20.429-45.606-45.606v-497.92l-74.163 74.163c-8.256 8.256-19.648 13.363-32.243 13.363-25.165 0-45.581-20.429-45.581-45.606zM861.606 721.6h-167.206c-25.178 0-45.606-20.429-45.606-45.606s20.429-45.606 45.606-45.606h136.806v-577.6h-638.4v577.613h136.794c25.203 0 45.606 20.429 45.606 45.606s-20.39 45.606-45.606 45.606h-167.194c-33.523 0-60.8-27.277-60.8-60.8v-638.413c0-33.51 27.277-60.8 60.8-60.8h699.2c33.549 0 60.8 27.29 60.8 60.8v638.4c0 33.523-27.251 60.8-60.8 60.8z" />
<glyph unicode="&#xe920;" glyph-name="drawing" d="M891.187 477.914c-25.152 0-45.568-20.403-45.568-45.555v-379.648h-728.909v728.922h379.648c25.152 0 45.555 20.403 45.555 45.555s-20.403 45.555-45.555 45.555h-410.010c-33.549 0-60.749-27.2-60.749-60.749v-789.645c0-33.549 27.2-60.749 60.749-60.749h789.658c33.549 0 60.736 27.2 60.736 60.749v410.010c0 25.152-20.378 45.555-45.555 45.555zM986.893 792.218l-130.662 130.688c-7.13 7.117-16.435 10.586-25.779 10.586s-18.662-3.469-25.792-10.586l-505.715-505.728v-182.234h182.221l505.715 505.728c7.13 7.117 10.598 16.461 10.598 25.779 0.013 9.331-3.469 18.65-10.586 25.766zM450.803 326.054h-60.749v60.749l440.397 440.384 60.736-60.749-440.384-440.384z" />
<glyph unicode="&#xe921;" glyph-name="drop" d="M806.669 454.208l-241.075 448.166c-10.278 19.046-30.438 32.026-53.594 32.026s-43.315-12.979-53.594-32.026l-241.075-448.166c-25.357-47.117-39.731-100.966-39.731-158.208 0-184.691 149.709-334.4 334.4-334.4s334.4 149.709 334.4 334.4c0 57.242-14.374 111.091-39.731 158.208zM512 52.8c-134.106 0-243.2 109.094-243.2 243.2 0 40.768 9.702 79.45 28.826 115.008l214.374 398.464 214.374-398.502c19.11-35.52 28.826-74.202 28.826-114.97 0-134.106-109.094-243.2-243.2-243.2z" />
<glyph unicode="&#xe922;" glyph-name="dropbox" d="M772.608 832.96c-11.443 15.731-29.696 24.998-49.114 24.998h-424.026c-19.456 0-37.683-9.28-49.139-24.998l-224.73-309.030v-425.152c0-33.536 27.2-60.736 60.736-60.736h850.291c33.549 0 60.736 27.2 60.736 60.736v425.152l-224.755 309.030zM314.931 766.861h393.088l154.586-212.57h-123.366c-12.058 0-23.667-4.8-32.218-13.35l-108.109-108.109h-174.861l-108.122 108.109c-8.538 8.55-20.134 13.35-32.205 13.35h-123.405l154.611 212.57zM906.266 129.152h-789.568v334.042h148.16l108.122-108.122c8.538-8.55 20.109-13.35 32.205-13.35h212.582c12.058 0 23.667 4.8 32.205 13.35l108.122 108.122h148.16v-334.042z" />
<glyph unicode="&#xe923;" glyph-name="location3" d="M783.309 321.92c-8.986 0-17.997 2.816-25.651 8.704-18.586 14.157-22.118 40.73-7.962 59.264 38.144 49.946 58.317 109.338 58.317 171.75 0 158.899-132.813 288.154-296.013 288.154-23.347 0-42.291 18.918-42.291 42.291s18.944 42.317 42.291 42.317c209.869 0 380.595-167.219 380.595-372.736 0-81.126-26.189-158.285-75.699-223.078-8.269-10.931-20.89-16.666-33.587-16.666zM512 413.645c-81.613 0-148.019 66.406-148.019 148.019s66.432 148.019 148.019 148.019c81.613 0 148.019-66.406 148.019-148.019s-66.406-148.019-148.019-148.019zM512 625.075c-34.995 0-63.437-28.442-63.437-63.437 0-34.97 28.442-63.437 63.437-63.437s63.462 28.467 63.462 63.437c0 35.021-28.467 63.437-63.462 63.437zM511.974-38.246c-8.858 0-17.792 2.765-25.421 8.525-18.662 14.029-22.4 40.55-8.346 59.213l271.309 360.166c14.080 18.662 40.525 22.374 59.213 8.346 18.662-14.080 22.4-40.627 8.32-59.213l-271.258-360.166c-8.32-11.085-20.992-16.87-33.818-16.87zM240.717 321.92c-12.723 0-25.318 5.734-33.613 16.64-49.51 64.794-75.699 141.952-75.699 223.078 0 205.542 170.726 372.762 380.595 372.762 23.373 0 42.291-18.944 42.291-42.291 0-23.373-18.944-42.291-42.291-42.291-163.226 0-296.013-129.28-296.013-288.154 0-62.438 20.147-121.83 58.317-171.75 14.182-18.56 10.65-45.133-7.91-59.264-7.706-5.888-16.717-8.73-25.677-8.73zM512.026-38.246c-12.826 0-25.523 5.811-33.818 16.87l-271.283 360.166c-14.054 18.611-10.317 45.158 8.346 59.213 18.662 14.029 45.184 10.317 59.213-8.346l271.309-360.166c14.003-18.662 10.291-45.21-8.371-59.213-7.603-5.76-16.538-8.525-25.395-8.525z" />
<glyph unicode="&#xe924;" glyph-name="email" d="M937.562 843.187h-851.162c-33.574 0-60.8-27.226-60.8-60.8v-668.762c0-33.574 27.226-60.8 60.8-60.8h851.162c33.574 0 60.787 27.226 60.787 60.8v668.762c0 33.574-27.213 60.8-60.787 60.8zM907.162 144.026h-790.362v465.050l356.096-298.803c11.328-9.498 25.203-14.272 39.078-14.272s27.763 4.774 39.091 14.272l356.096 298.803v-465.050zM907.162 728.115l-395.187-331.584-395.174 331.584v23.872h790.374v-23.872z" />
<glyph unicode="&#xe925;" glyph-name="export" d="M640.525 190.605c-11.84 0-22.566-4.826-30.336-12.57l-41.165-41.178v268.57c17.267 13.056 28.595 33.587 28.595 56.883 0 39.488-32.013 71.501-71.501 71.501-39.501 0-71.501-32.013-71.501-71.501 0-23.296 11.341-43.827 28.595-56.883v-268.57l-41.165 41.178c-7.77 7.744-18.496 12.57-30.336 12.57-23.693 0-42.906-19.226-42.906-42.906 0-11.853 4.8-22.579 12.57-30.349l114.406-114.406c7.757-7.77 18.483-12.57 30.336-12.57 11.84 0 22.566 4.8 30.323 12.57l114.406 114.406c7.757 7.77 12.557 18.496 12.557 30.349 0.026 23.68-19.187 42.906-42.88 42.906zM883.635 576.704c0 116.109-92.288 210.432-207.475 214.144-54.989 69.798-140.070 114.765-235.84 114.765-159.629 0-289.779-124.621-299.392-281.83-68.518-35.789-115.328-107.405-115.328-190.080 0-118.477 96.026-214.502 214.502-214.502h57.203c23.68 0 42.906 19.2 42.906 42.906 0 23.68-19.213 42.906-42.906 42.906h-57.203c-70.963 0-128.704 57.728-128.704 128.704 0 48.013 26.534 91.725 69.274 114.048l42.931 22.451 2.957 48.371c6.899 112.832 100.8 201.242 213.76 201.242 65.971 0 127.373-29.914 168.448-82.061l24.73-31.373 39.91-1.28c69.773-2.266 124.442-58.662 124.442-128.397v-57.178l52.787-22.016c37.427-15.616 61.606-51.891 61.606-92.416 0-55.206-44.915-100.096-100.096-100.096h-57.216c-23.68 0-42.906-19.226-42.906-42.906 0-23.706 19.226-42.906 42.906-42.906h57.216c102.669 0 185.894 83.226 185.894 185.894 0 77.338-47.232 143.603-114.406 171.61z" />
<glyph unicode="&#xe926;" glyph-name="none" d="M940.723-35.738c-14.669 0-29.338 5.632-40.525 16.717l-857.421 852.506c-22.502 22.374-22.605 58.778-0.23 81.28 22.4 22.477 58.752 22.579 81.254 0.23l857.421-852.454c22.502-22.4 22.63-58.829 0.23-81.331-11.238-11.264-25.984-16.947-40.73-16.947zM83.277-35.738c-14.746 0-29.517 5.683-40.73 16.947-22.4 22.502-22.272 58.931 0.23 81.331l857.421 852.454c22.502 22.374 58.854 22.272 81.254-0.23s22.272-58.906-0.23-81.28l-857.421-852.48c-11.238-11.11-25.856-16.742-40.525-16.742z" />
<glyph unicode="&#xe927;" glyph-name="paragraph" d="M947.2 678.4h-870.4c-28.262 0-51.2 22.938-51.2 51.2s22.938 51.2 51.2 51.2h870.4c28.262 0 51.2-22.938 51.2-51.2s-22.938-51.2-51.2-51.2zM947.2 396.8h-870.4c-28.262 0-51.2 22.938-51.2 51.2s22.938 51.2 51.2 51.2h870.4c28.262 0 51.2-22.938 51.2-51.2s-22.938-51.2-51.2-51.2zM947.2 115.2h-870.4c-28.262 0-51.2 22.938-51.2 51.2s22.938 51.2 51.2 51.2h870.4c28.262 0 51.2-22.938 51.2-51.2s-22.938-51.2-51.2-51.2z" />
<glyph unicode="&#xe928;" glyph-name="people2" d="M512 395.955c-148.301 0-268.979 120.653-268.979 268.979s120.678 268.954 268.979 268.954c148.326 0 269.005-120.653 269.005-268.979s-120.678-268.954-269.005-268.954zM512 851.149c-102.682 0-186.189-83.533-186.189-186.214s83.533-186.214 186.189-186.214c102.707 0 186.189 83.533 186.189 186.214 0 102.656-83.482 186.214-186.189 186.214zM909.67-38.4h-785.024c-47.462 0-67.84 65.715-67.84 86.605v135.834c0 162.458 199.936 289.69 455.194 289.69s455.194-127.232 455.194-289.69v-135.834c0-39.962-15.053-86.605-57.523-86.605zM141.696 44.365h742.554c0.102 1.408 0.205 2.714 0.205 3.814v135.834c0 112.154-170.598 206.925-372.454 206.925-201.907 0-372.429-94.771-372.429-206.925v-133.709c0.41-1.613 1.203-3.763 2.125-5.939z" />
<glyph unicode="&#xe929;" glyph-name="export2" d="M360 691.2c12.582 0 23.987 5.107 32.256 13.363l74.15 74.15v-497.92c0-25.178 20.416-45.606 45.606-45.606s45.606 20.429 45.606 45.606v497.92l74.163-74.15c8.23-8.256 19.635-13.363 32.218-13.363 25.216 0 45.606 20.429 45.606 45.606 0 12.582-5.094 23.987-13.35 32.243l-152 151.987c-8.269 8.256-19.674 13.363-32.256 13.363s-23.987-5.107-32.23-13.363l-152.013-152c-8.256-8.256-13.363-19.648-13.363-32.243 0.013-25.165 20.416-45.594 45.606-45.594zM861.606 630.4h-167.206c-25.178 0-45.606-20.429-45.606-45.606s20.429-45.606 45.606-45.606h136.806v-486.4h-638.4v486.4h136.794c25.19 0 45.606 20.429 45.606 45.606s-20.416 45.606-45.606 45.606h-167.194c-33.523 0-60.8-27.277-60.8-60.8v-547.2c0-33.51 27.277-60.8 60.8-60.8h699.2c33.549 0 60.8 27.29 60.8 60.8v547.2c0 33.523-27.251 60.8-60.8 60.8z" />
<glyph unicode="&#xe92a;" glyph-name="search2" d="M932.019-38.246c-11.52 0-23.066 4.48-31.718 13.389l-235.981 242.97c-16.998 17.562-16.589 45.517 0.896 62.541 17.562 16.998 45.491 16.589 62.515-0.896l235.981-243.021c16.998-17.51 16.589-45.466-0.896-62.49-8.602-8.371-19.712-12.493-30.797-12.493zM452.070 134.246c-222.925 0-404.275 179.507-404.275 400.077 0 220.595 181.35 400.077 404.275 400.077s404.301-179.482 404.301-400.077c0-220.57-181.376-400.077-404.301-400.077zM452.070 845.978c-174.157 0-315.853-139.802-315.853-311.654 0-171.827 141.696-311.68 315.853-311.68s315.878 139.853 315.878 311.68c0 171.853-141.722 311.654-315.878 311.654z" />
<glyph unicode="&#xe92b;" glyph-name="setting2" d="M511.949 281.446c-92.416 0-167.603 75.213-167.603 167.603s75.187 167.603 167.603 167.603 167.603-75.187 167.603-167.603-75.213-167.603-167.603-167.603zM511.949 532.864c-46.208 0-83.789-37.581-83.789-83.789s37.581-83.814 83.789-83.814 83.814 37.606 83.814 83.814-37.606 83.789-83.814 83.789zM600.141-38.656h-167.578c-41.702 0-67.2 50.048-67.2 77.312v50.662c-22.554 9.037-44.134 20.531-66.33 35.354l-39.040-28.8c-28.723-20.429-68.838-12.851-88.192 14.387l-97.254 136.474c-9.728 13.645-13.594 30.31-10.803 46.848 2.765 16.563 11.853 31.078 25.549 40.832l40.934 29.158c-7.936 31.59-11.93 63.77-11.93 95.974 0 30.413 3.43 60.544 10.24 89.933l-47.437 33.126c-28.442 19.968-35.43 59.213-15.642 87.526l95.77 137.293c19.098 27.443 59.571 34.688 87.014 15.514l45.338-32.205c23.219 15.795 47.002 28.595 71.782 38.682v95.667h222.976c5.99 4.608 14.874 9.318 26.675 9.318 1.766 0 43.622-0.563 43.622-51.2v-53.402c25.446-9.933 49.92-22.426 72.576-37.094l42.598 29.338c10.214 7.27 22.81 11.264 35.891 11.264 20.275 0 39.398-9.805 51.2-26.317l97.254-136.55c20.096-28.16 13.542-67.482-14.643-87.629l-40.576-28.902c7.629-31.027 11.469-62.669 11.469-94.413 0-31.565-3.789-63.002-11.341-93.875l34.381-24.090c13.594-9.498 22.784-23.859 25.728-40.32 2.944-16.589-0.742-33.357-10.419-47.181l-96.384-137.37c-11.75-16.742-31.13-26.778-51.84-26.778v0c-13.082 0-25.6 3.917-36.224 11.366l-36.787 25.242c-22.733-14.72-47.309-27.29-72.883-37.274v-50.586c0.026-38.374-20.070-77.286-58.496-77.286zM449.152 45.184h125.696v105.011l29.798 9.011c36.659 11.059 71.552 28.902 100.941 51.584l24.192 18.637 69.683-47.898 72.627 103.526-66.97 46.976 9.677 29.517c10.496 32 15.821 64.973 15.821 98.022 0 33.126-5.376 66.15-15.898 98.253l-9.651 29.312 72.73 51.789-73.114 102.682-75.085-51.814-24.192 18.637c-29.363 22.605-64.23 40.397-100.762 51.405l-29.798 9.011v72.448h-125.696v-72.166l-29.44-9.165c-35.149-10.957-67.789-28.544-99.814-53.811l-24.627-19.379-77.568 55.091-71.526-102.502 79.77-55.731-9.267-29.338c-9.677-30.592-14.592-62.464-14.592-94.771 0-33.485 5.53-66.944 16.41-99.533l9.805-29.389-73.37-52.326 72.755-102.093 71.398 52.659 24.986-19.072c33.075-25.19 62.413-40.781 95.13-50.534l29.952-8.909v-105.139z" />
<glyph unicode="&#xe92c;" glyph-name="eye" d="M512 826.317c-268.659 0-459.379-243.2-486.4-378.317 27.021-135.117 217.741-378.317 486.4-378.317s459.379 243.2 486.4 378.317c-27.021 135.117-217.741 378.317-486.4 378.317zM512 150.746c-212.109 0-369.946 187.558-402.906 297.254 32.96 109.67 190.797 297.242 402.906 297.242s369.946-187.571 402.906-297.242c-32.96-109.696-190.797-297.254-402.906-297.254zM512 610.138c-89.562 0-162.138-72.563-162.138-162.138s72.576-162.138 162.138-162.138 162.138 72.576 162.138 162.138-72.576 162.138-162.138 162.138zM512 366.938c-44.698 0-81.062 36.365-81.062 81.062s36.365 81.062 81.062 81.062 81.062-36.365 81.062-81.062-36.365-81.062-81.062-81.062z" />
<glyph unicode="&#xe92d;" glyph-name="fax" d="M937.6 721.6h-121.6v212.8h-608v-212.8h-121.6c-33.587 0-60.8-27.226-60.8-60.8v-486.4c0-33.574 27.213-60.8 60.8-60.8h121.6v-152h608v152h121.6c33.574 0 60.8 27.226 60.8 60.8v486.4c0 33.574-27.226 60.8-60.8 60.8zM299.2 843.2h425.6v-121.6h-425.6v121.6zM724.8 52.8h-425.6v212.787h425.6v-212.787zM907.2 204.8h-91.2v152h-608v-152h-91.2v425.6h790.4v-425.6zM816 569.6h-91.2v-91.2h91.2v91.2z" />
<glyph unicode="&#xe92e;" glyph-name="flag" d="M885.478 876.237c-13.555 8.307-30.528 8.883-44.672 1.549-36.070-18.65-71.578-34.125-140.096-34.125-75.379 0-110.912 18.701-152.051 40.358-45.325 23.846-96.653 50.88-194.56 50.88-67.725 0-112.986-12.954-149.555-28.787-6.707 16.832-23.078 28.787-42.33 28.787-25.19 0-45.619-20.403-45.619-45.619v-882.048c0-25.203 20.442-45.619 45.619-45.619s45.619 20.429 45.619 45.619v373.325c38.758 20.314 74.496 37.274 146.253 37.274 75.354 0 110.912-18.714 152.026-40.358 45.325-23.859 96.653-50.893 194.586-50.893 88.896 0 138.675 21.888 182.054 44.314 15.155 7.846 24.653 23.475 24.653 40.55v425.83c0 15.91-8.333 30.682-21.926 38.963zM816.154 439.987c-29.069-12.851-62.323-22.144-115.456-22.144-75.379 0-110.912 18.701-152.051 40.358-45.325 23.846-96.653 50.88-194.56 50.88-65.638 0-110.246-12.147-146.253-27.328v324.634c38.758 20.314 74.496 37.274 146.253 37.274 75.354 0 110.912-18.714 152.026-40.371 45.325-23.846 96.653-50.88 194.586-50.88 48.269 0 85.030 6.477 115.456 15.949v-328.371z" />
<glyph unicode="&#xe92f;" glyph-name="flower" d="M846.758 448c82.995 92.109 110.797 177.754 75.942 238.618-24.064 41.958-71.27 63.859-137.216 65.254-29.939 0.627-63.744-2.931-100.992-10.803-38.477 123.418-100.122 193.331-172.493 193.331-72.384 0-134.016-69.914-172.531-193.331-117.952 24.602-203.699 5.632-238.195-54.477-34.842-60.877-7.002-146.483 75.968-238.592-83.008-92.109-110.81-177.728-75.942-238.63 24.96-43.482 74.611-65.254 144.23-65.254 28.134 0 59.674 3.443 94.016 10.714 38.477-123.341 100.109-193.229 172.454-193.229 72.371 0 134.003 69.888 172.493 193.306 33.446-6.976 64.461-10.65 92.262-10.65 70.298 0 121.216 22.080 145.958 65.165 34.854 60.89 7.027 146.496-75.955 238.579zM843.558 641.267c10.112-17.651-5.85-76.877-91.814-160.602-8.55-8.333-17.69-16.678-27.085-24.947-0.192 28.518-1.254 56.947-3.392 84.48-3.034 39.014-8.704 76.211-15.59 112.282 84.864 17.344 129.28 3.725 137.882-11.213zM512 843.213c21.338 0 66.317-45.491 96.166-167.603 3.686-15.078 6.438-31.194 9.357-47.091-0.422 0.243-0.858 0.538-1.293 0.768-27.174 15.846-55.68 30.861-84.659 44.634-35.494 16.922-70.387 31.104-104.307 42.739 28.979 91.354 65.984 126.554 84.736 126.554zM180.454 254.72c-10.125 17.69 5.85 76.89 91.814 160.64 8.55 8.333 17.677 16.64 27.098 24.947 0.179-28.518 1.242-56.947 3.379-84.518 3.021-39.066 8.691-76.173 15.578-112.256-84.877-17.318-129.331-3.738-137.869 11.187zM321.818 573.939c-28.582-20.237-54.989-41.126-79.258-62.259-59.853 67.213-70.95 114.214-62.17 129.562 9.882 17.242 67.034 32.794 178.79 1.344 14.989-4.224 30.413-9.318 46.029-14.874-27.891-16.32-55.91-34.342-83.392-53.773zM512 52.826c-21.338 0-66.33 45.491-96.179 167.565-3.686 15.117-6.438 31.194-9.344 47.142 0.422-0.243 0.858-0.538 1.28-0.781 27.187-15.885 55.667-30.886 84.659-44.659 35.482-16.883 70.387-31.104 104.307-42.739-28.966-91.379-65.958-126.528-84.723-126.528zM570.381 345.536c-18.816-10.982-38.502-21.35-58.368-31.283-19.891 9.933-39.526 20.301-58.368 31.309-20.275 11.789-40.602 24.896-60.8 38.554-1.229 21.094-2.445 42.304-2.445 63.885 0 21.606 1.216 42.765 2.432 63.885 20.211 13.683 40.538 26.765 60.8 38.579 18.816 10.944 38.477 21.312 58.368 31.27 19.866-9.971 39.552-20.326 58.368-31.27 20.262-11.814 40.589-24.896 60.813-38.579 1.203-21.12 2.419-42.278 2.419-63.885 0-21.581-1.229-42.765-2.419-63.885-20.224-13.658-40.538-26.765-60.8-38.579zM843.61 254.72c-9.894-17.126-67.085-32.73-178.79-1.306-14.989 4.198-30.374 9.318-46.003 14.861 27.878 16.32 55.91 34.33 83.366 53.747 28.57 20.288 54.989 41.152 79.283 62.285 59.814-67.213 70.95-114.176 62.144-129.587zM512 508.8c-33.574 0-60.8-27.213-60.8-60.8 0-33.562 27.238-60.8 60.8-60.8s60.8 27.238 60.8 60.8c0 33.6-27.238 60.8-60.8 60.8z" />
<glyph unicode="&#xe930;" glyph-name="folder" d="M937.574 782.515h-456.154l-91.226 91.238h-304.115c-33.587 0-60.813-27.238-60.813-60.826v-729.869c0-33.587 27.226-60.813 60.813-60.813h851.494c33.587 0 60.826 27.226 60.826 60.813v638.643c0 33.587-27.238 60.813-60.826 60.813zM907.174 113.472h-790.682v425.754h790.682v-425.754zM907.174 630.464h-790.682v152.051h235.891l91.226-91.238h463.565v-60.813z" />
<glyph unicode="&#xe931;" glyph-name="food" d="M983.667 448c0 54.989-33.51 102.886-82.765 122.752-41.229 116.506-132.864 206.579-245.389 248.794-14.886 65.6-73.434 114.854-143.514 114.854-70.067 0-128.627-49.254-143.501-114.867-112.538-42.202-204.198-132.275-245.389-248.781-49.293-19.866-82.778-67.763-82.778-122.752 0-68.544 52.429-124.48 119.181-131.302-0.832-5.235-1.267-10.624-1.267-16.102 0-8.512 1.037-16.947 3.085-25.101l58.957-235.802c11.494-45.965 52.659-78.093 100.096-78.093h383.232c47.437 0 88.576 32.128 100.096 78.106l58.931 235.776c2.074 8.179 3.11 16.614 3.11 25.126 0 5.478-0.435 10.867-1.306 16.102 66.765 6.81 119.219 62.746 119.219 131.29zM512 845.965c32.499 0 58.957-26.458 58.957-58.957s-26.458-58.957-58.957-58.957c-32.538 0-58.957 26.458-58.957 58.957s26.419 58.957 58.957 58.957zM776.87 296.973l-58.944-235.802c-1.357-5.376-6.4-11.136-14.31-11.136h-383.232c-7.923 0-12.954 5.76-14.31 11.136l-58.982 235.891c-0.256 1.101-0.397 2.278-0.397 3.533 0 8.128 6.592 14.746 14.733 14.746h501.146c8.115 0 14.733-6.63 14.733-14.746 0.013-1.254-0.141-2.432-0.435-3.622zM850.995 403.789h-678.003c-24.384 0-44.224 19.827-44.224 44.211 0 21.478 15.437 39.706 36.736 43.354l27.379 4.698 7.654 26.714c26.547 92.531 92.902 166.016 176.896 204.685 22.95-51.622 74.522-87.834 134.566-87.834 60.019 0 111.616 36.211 134.554 87.834 84.006-38.669 150.336-112.154 176.87-204.685l7.667-26.714 27.405-4.698c21.312-3.661 36.736-21.875 36.736-43.354-0.013-24.384-19.84-44.211-44.237-44.211z" />
<glyph unicode="&#xe932;" glyph-name="grahp" d="M512 934.4c-268.211 0-486.4-218.189-486.4-486.4 0-268.198 218.189-486.4 486.4-486.4 268.198 0 486.4 218.202 486.4 486.4 0 268.211-218.202 486.4-486.4 486.4zM512 840.256c30.605 0 60.25-3.853 88.832-10.534l-121.805-334.643h-356.186c23.36 194.125 188.826 345.178 389.158 345.178zM512 55.744c-200.333 0-365.798 151.040-389.158 345.178h369.664l261.222-261.21c-66.714-52.416-150.515-83.968-241.728-83.968zM820.288 206.272l-253.798 253.798 122.79 337.37c127.36-64.87 214.976-196.979 214.976-349.44 0-91.2-31.552-175.040-83.968-241.728z" />
<glyph unicode="&#xe933;" glyph-name="umbralla" d="M894.95 397.594h-765.926c-29.67 0-49.51 23.68-57.472 43.93l-2.176 5.504-0.512 5.914c-1.101 13.21-1.613 30.925-1.613 42.624-0.026 241.971 199.501 438.835 444.749 438.835s444.774-197.683 444.774-440.704c0-13.338-0.614-28.416-1.638-40.32l-0.512-5.914-2.176-5.504c-8.064-20.48-27.981-44.365-57.498-44.365zM148.736 478.822h726.528c0.179 5.043 0.282 10.112 0.282 14.874 0 198.221-163.072 359.501-363.546 359.501s-363.571-160.41-363.571-357.606c0-5.274 0.128-11.11 0.307-16.768zM532.301 93.030c-22.426 0-40.602 18.202-40.602 40.627v284.237c0 22.426 18.176 40.602 40.602 40.602s40.627-18.176 40.627-40.602v-284.262c0-22.4-18.202-40.602-40.627-40.602zM405.274-38.938c-92.57 0-167.859 72.422-167.859 161.408 0 22.426 18.176 40.627 40.602 40.627s40.602-18.202 40.602-40.627c0-44.211 38.861-80.179 86.63-80.179 47.795 0 86.656 35.968 86.656 80.179 0 22.426 18.176 40.627 40.602 40.627s40.602-18.202 40.602-40.627c0.026-88.986-75.29-161.408-167.834-161.408z" />
<glyph unicode="&#xe934;" glyph-name="grahp2" d="M512.269 934.4c-268.787 0-486.669-217.882-486.669-486.669 0-268.8 217.882-486.669 486.669-486.669 268.8 0 486.669 217.869 486.669 486.669 0 268.787-217.869 486.669-486.669 486.669zM559.373 837.107c178.765-21.53 320.755-163.52 342.272-342.285h-342.272v342.285zM512.269 55.245c-216.41 0-392.474 176.064-392.474 392.486 0 200.435 151.142 365.978 345.382 389.376v-436.493h436.48c-23.411-194.227-188.941-345.37-389.389-345.37z" />
<glyph unicode="&#xe935;" glyph-name="bookmark2" d="M787.277-38.067c-23.552 0-42.624 19.072-42.624 42.573 0 16.435 9.293 30.72 22.963 37.837v806.733h-511.206v-806.758c13.619-7.091 22.938-21.402 22.938-37.837 0-23.501-19.098-42.573-42.624-42.573-36.122 0-65.562 28.672-65.562 64.026v858.291c0 20.198 9.958 32.358 15.872 37.811 16.23 14.95 35.661 13.338 44.979 12.544 1.459-0.128 3.072-0.282 4.71-0.282h550.554c1.664 0 3.251 0.154 4.71 0.282 9.318 0.768 28.698 2.406 45.005-12.544 5.914-5.453 15.846-17.613 15.846-37.811v-858.266c-0.026-35.354-29.414-64.026-65.562-64.026zM239.283-38.067c-12.57 0-25.037 5.53-33.434 16.179-14.592 18.432-11.494 45.261 6.963 59.827l271.181 214.579c18.483 14.643 45.286 11.469 59.93-6.989 14.566-18.432 11.443-45.21-7.040-59.802l-271.206-214.656c-7.808-6.17-17.152-9.139-26.394-9.139zM787.251-38.067c-9.318 0-18.611 2.97-26.419 9.139l-271.181 214.63c-18.458 14.592-21.581 41.37-6.963 59.802 14.592 18.483 41.395 21.632 59.878 6.989l271.155-214.579c18.432-14.566 21.606-41.395 6.938-59.827-8.397-10.624-20.838-16.154-33.408-16.154z" />
<glyph unicode="&#xe936;" glyph-name="grahp3" d="M785.638 144.064h121.574c33.574 0 60.8 27.187 60.8 60.787v668.659c0 33.549-27.226 60.787-60.8 60.787h-121.574c-33.562 0-60.774-27.238-60.774-60.787v-668.659c0-33.6 27.213-60.787 60.774-60.787zM816.038 843.11h60.787v-607.872h-60.787v607.872zM952.806 52.877h-881.421c-25.203 0-45.594-20.429-45.594-45.594s20.39-45.594 45.594-45.594h881.408c25.178 0 45.606 20.429 45.606 45.594s-20.429 45.594-45.594 45.594zM451.315 144.064h121.574c33.574 0 60.787 27.187 60.787 60.787v425.51c0 33.549-27.213 60.787-60.787 60.787h-121.574c-33.574 0-60.787-27.238-60.787-60.787v-425.51c0-33.6 27.213-60.787 60.787-60.787zM481.702 599.962h60.787v-364.723h-60.787v364.723zM116.979 144.064h121.574c33.574 0 60.787 27.187 60.787 60.787v182.362c0 33.536-27.213 60.787-60.787 60.787h-121.574c-33.574 0-60.787-27.238-60.787-60.787v-182.362c0-33.6 27.213-60.787 60.787-60.787zM147.379 356.813h60.787v-121.574h-60.787v121.574z" />
<glyph unicode="&#xe937;" glyph-name="grahp4" d="M785.69 143.923h121.549c33.562 0 60.774 27.213 60.774 60.774v486.221c0 33.562-27.213 60.774-60.774 60.774h-121.549c-33.574 0-60.787-27.213-60.787-60.774v-486.221c0-33.562 27.213-60.774 60.787-60.774zM816.077 660.531h60.774v-425.434h-60.774v425.434zM451.418 143.923h121.549c33.574 0 60.774 27.213 60.774 60.774v668.557c0 33.562-27.2 60.774-60.774 60.774h-121.549c-33.562 0-60.774-27.213-60.774-60.774v-668.544c0-33.574 27.213-60.787 60.774-60.787zM481.805 842.867h60.774v-607.757h-60.774v607.757zM952.819 52.762h-881.267c-25.19 0-45.581-20.429-45.581-45.594 0-25.139 20.39-45.568 45.581-45.568h881.267c25.152 0 45.581 20.429 45.581 45.581s-20.429 45.581-45.581 45.581zM117.133 143.923h121.562c33.562 0 60.774 27.213 60.774 60.774v303.885c0 33.562-27.213 60.774-60.774 60.774h-121.562c-33.562 0-60.774-27.213-60.774-60.774v-303.885c0-33.562 27.226-60.774 60.774-60.774zM147.52 478.195h60.787v-243.098h-60.787v243.098z" />
<glyph unicode="&#xe938;" glyph-name="headset" d="M921.267 348.224c12.813 40.563 19.917 83.622 19.917 128.384 0 236.659-192.512 429.171-429.171 429.171s-429.184-192.499-429.184-429.171c0-44.762 7.091-87.821 19.917-128.384-46.886-36.659-77.146-93.594-77.146-157.722 0-110.63 89.664-200.282 200.282-200.282h28.621c31.59 0 57.216 25.626 57.216 57.242v286.106c0 31.603-25.626 57.229-57.216 57.229h-28.621c-15.334 0-30.208-1.869-44.557-5.133-8.013 29.030-12.659 59.43-12.659 90.957 0 189.312 153.997 343.347 343.334 343.347 189.325 0 343.334-154.022 343.334-343.347 0-31.539-4.634-61.939-12.646-90.957-14.362 3.264-29.222 5.133-44.557 5.133h-28.608c-31.616 0-57.242-25.626-57.242-57.229v-286.118c0-31.616 25.626-57.242 57.242-57.242h28.608c110.605 0 200.269 89.664 200.269 200.294 0 64.128-30.259 121.062-77.133 157.722zM225.882 304.934v-228.89c-63.117 0-114.445 51.341-114.445 114.445 0 63.13 51.328 114.445 114.445 114.445zM798.131 76.045v228.89c63.117 0 114.432-51.315 114.432-114.432s-51.328-114.458-114.432-114.458z" />
<glyph unicode="&#xe939;" glyph-name="heart" d="M725.018 904.141c-86.029 0-162.701-39.77-212.864-101.824-50.189 62.054-126.835 101.824-212.864 101.824-151.168 0-273.69-122.534-273.69-273.69 0-364.915 425.728-608.192 486.554-638.592 60.826 30.4 486.554 273.677 486.554 638.592-0.013 151.155-122.534 273.69-273.69 273.69zM512.154 96.781c-108.429 65.626-395.328 264.896-395.328 533.67 0 100.608 81.856 182.464 182.464 182.464 55.296 0 107.021-24.768 141.914-67.955 17.318-21.44 43.392-33.882 70.938-33.882 27.558 0 53.619 12.442 70.95 33.882 34.906 43.187 86.643 67.955 141.914 67.955 100.621 0 182.464-81.856 182.464-182.464 0-268.774-286.899-468.045-395.315-533.67z" />
<glyph unicode="&#xe93a;" glyph-name="home" d="M889.613 572.557l-350.72 350.733c-14.861 14.848-38.925 14.848-53.773 0l-350.733-350.733c-11.405-11.405-17.83-26.88-17.83-43.008v-507.136c0-33.6 27.238-60.838 60.838-60.838h212.928c33.6 0 60.826 27.238 60.826 60.838v212.915h121.677v-212.915c0-33.6 27.251-60.838 60.851-60.838h212.915c33.6 0 60.851 27.238 60.851 60.838v507.136c0 16.128-6.426 31.603-17.83 43.008zM816.179 52.838h-152.077v212.928c0 33.6-27.264 60.838-60.851 60.838h-182.515c-33.6 0-60.826-27.238-60.826-60.838v-212.928h-152.090v464.115l304.192 304.166 304.166-304.179v-464.102z" />
<glyph unicode="&#xe93b;" glyph-name="hospital" d="M467.776 212.173h88.435v117.914h117.926v88.435h-117.926v117.914h-88.435v-117.914h-117.914v-88.435h117.914v-117.914zM939.443 742.784h-206.362v88.435c0 32.563-26.406 58.957-58.944 58.957h-324.275c-32.563 0-58.957-26.406-58.957-58.957v-88.435h-206.349c-32.55 0-58.957-26.394-58.957-58.944v-619.059c0-32.563 26.406-58.957 58.957-58.957h854.886c32.563 0 58.957 26.406 58.957 58.957v619.059c0 32.55-26.394 58.944-58.957 58.944zM379.341 801.754h265.306v-58.957h-265.306v58.957zM909.965 94.246h-795.93v560.102h795.93v-560.102z" />
<glyph unicode="&#xe93c;" glyph-name="image" d="M937.6 843.2h-851.2c-33.574 0-60.8-27.226-60.8-60.8v-668.8c0-33.587 27.226-60.8 60.8-60.8h851.2c33.587 0 60.8 27.213 60.8 60.8v668.8c0 33.574-27.213 60.8-60.8 60.8zM907.2 143.987h-790.4v167.155c47.283-22.195 102.669-45.555 202.47-45.555 106.547 0 162.637 26.586 212.122 49.984 46.694 22.131 87.014 41.229 173.056 41.229s126.336-19.098 173.056-41.229c9.523-4.506 19.392-9.101 29.709-13.632v-157.952zM907.2 402.368c-47.36 22.259-102.771 45.632-202.765 45.632-106.56 0-162.624-26.547-212.096-49.997-46.694-22.118-87.027-41.203-173.069-41.203-85.978 0-126.259 19.085-172.902 41.203-9.498 4.506-19.29 9.088-29.568 13.606v340.39h790.4v-349.632zM299.2 508.8c33.574 0 60.8 27.226 60.8 60.8s-27.226 60.8-60.8 60.8-60.8-27.226-60.8-60.8 27.226-60.8 60.8-60.8z" />
<glyph unicode="&#xe93d;" glyph-name="info" d="M512.141 508.928c-33.574 0-60.787-27.213-60.787-60.787v-182.349c0-33.562 27.213-60.774 60.787-60.774 33.562 0 60.787 27.213 60.787 60.774v182.349c0 33.574-27.226 60.787-60.787 60.787zM512.141 691.277c-33.574 0-60.787-27.213-60.787-60.787 0-33.562 27.213-60.787 60.787-60.787 33.562 0 60.787 27.213 60.787 60.787 0 33.562-27.226 60.787-60.787 60.787zM512.141 934.4c-268.122 0-486.259-218.138-486.259-486.259s218.138-486.246 486.259-486.246 486.259 218.125 486.259 486.246-218.138 486.259-486.259 486.259zM512.141 53.069c-217.856 0-395.085 177.254-395.085 395.072 0 217.843 177.229 395.085 395.085 395.085 217.869 0 395.085-177.242 395.085-395.085 0-217.818-177.216-395.072-395.085-395.072z" />
<glyph unicode="&#xe93e;" glyph-name="info2" d="M510.784 285.926c-29.837 0-54.029-24.205-54.029-54.042 0-29.824 24.192-54.016 54.029-54.016s54.016 24.192 54.016 54.016c0 29.837-24.192 54.042-54.016 54.042zM456.755 529.037c0-3.072 0.256-6.118 0.755-9.075l26.624-157.542c2.163-12.762 13.274-22.477 26.65-22.477 13.363 0 24.486 9.715 26.65 22.477l26.611 157.542c0.499 2.957 0.768 6.003 0.768 9.075 0 29.837-24.192 54.042-54.016 54.042-29.85 0-54.042-24.205-54.042-54.042zM986.227 137.254l-405.184 702.336c-14.016 24.269-40.243 40.627-70.259 40.627s-56.243-16.346-70.259-40.627l-405.197-702.336c-6.861-11.904-10.79-25.702-10.79-40.422 0-44.736 36.301-81.037 81.050-81.037h810.394c44.736 0 81.050 36.301 81.050 81.037 0 14.72-3.942 28.518-10.803 40.422zM105.523 96.755l405.299 702.349 405.146-702.272-810.445-0.077z" />
<glyph unicode="&#xe93f;" glyph-name="jewelry" d="M990.054 608.205l-148.672 189.222c-7.693 9.766-19.456 15.488-31.885 15.488h-594.688c-12.429 0-24.205-5.722-31.885-15.488l-148.659-189.222c-12.544-15.974-11.354-38.72 2.79-53.299l446.016-459.52c7.629-7.872 18.138-12.301 29.082-12.301 10.957 0 21.453 4.429 29.094 12.301l446.003 459.507c14.144 14.579 15.347 37.338 2.803 53.312zM477.824 731.827h68.685l84.979-108.122h-238.656l84.992 108.122zM234.534 731.827h140.147l-84.966-108.122h-140.147l84.966 108.122zM161.997 542.618h134.067l93.44-234.406-227.507 234.406zM512.154 219.597l-128.781 323.021h257.587l-128.806-323.021zM634.803 308.198l93.453 234.406h134.067l-227.52-234.406zM734.618 623.706l-84.979 108.122h140.134l84.992-108.122h-140.147z" />
<glyph unicode="&#xe940;" glyph-name="jobs" d="M937.126 721.459h-182.31v91.136c0 33.562-27.2 60.774-60.762 60.774h-364.621c-33.562 0-60.774-27.2-60.774-60.774v-91.136h-182.285c-33.574 0-60.774-27.238-60.774-60.762v-577.306c0-33.6 27.2-60.774 60.774-60.774h850.752c33.562 0 60.774 27.174 60.774 60.774v577.306c0 33.523-27.213 60.762-60.774 60.762zM359.821 782.234h303.834v-60.774h-303.834v60.774zM906.739 113.779h-789.978v243.072h303.834v-30.374h182.31v30.374h303.834v-243.072zM906.739 448h-303.834v30.387h-182.31v-30.387h-303.834v182.31h789.978v-182.31z" />
<glyph unicode="&#xe941;" glyph-name="layer" d="M937.408 934.195h-607.872c-33.574 0-60.8-27.213-60.8-60.787v-182.374h-182.349c-33.574 0.013-60.787-27.2-60.787-60.774v-607.872c0-33.574 27.213-60.787 60.787-60.787h607.872c33.574 0 60.787 27.213 60.787 60.787v182.362h182.362c33.574 0 60.787 27.213 60.787 60.787v607.872c0 33.574-27.213 60.787-60.787 60.787zM663.859 52.774h-547.072v547.098h151.962v-334.336c0-33.574 27.226-60.787 60.8-60.787h334.323v-151.974zM907.021 295.936h-547.085v547.085h547.098v-547.085z" />
<glyph unicode="&#xe942;" glyph-name="light" d="M840.806 545.818c-7.987 14.669-23.309 23.808-40.051 23.808h-197.555v319.155c0 20.211-13.299 37.99-32.678 43.725-19.315 5.747-40.23-1.984-51.2-18.97l-334.362-516.71c-9.088-14.042-9.741-31.885-1.792-46.566 8.013-14.669 23.398-23.795 40.077-23.795h197.568v-319.155c0-20.211 13.299-38.003 32.678-43.738 4.275-1.28 8.64-1.869 12.915-1.869 15.194 0 29.734 7.603 38.285 20.838l334.349 516.723c9.062 14.029 9.766 31.898 1.766 46.554zM512.013 161.69v210.355c0 25.19-20.429 45.606-45.594 45.606h-159.334l204.928 316.762v-210.381c0-25.178 20.429-45.594 45.606-45.594h159.36l-204.966-316.749z" />
<glyph unicode="&#xe943;" glyph-name="location1" d="M512 934.4c-268.634 0-486.4-217.766-486.4-486.4s217.766-486.4 486.4-486.4 486.4 217.766 486.4 486.4-217.766 486.4-486.4 486.4zM559.066 58.842v106.752c0 25.971-21.069 47.066-47.066 47.066-26.022 0-47.066-21.082-47.066-47.066v-106.752c-178.688 21.53-320.576 163.443-342.093 342.106h106.726c25.984 0 47.078 21.069 47.078 47.066s-21.082 47.066-47.078 47.066h-106.726c21.517 178.662 163.405 320.576 342.093 342.093v-106.726c0-25.984 21.056-47.078 47.066-47.078 25.984 0 47.066 21.082 47.066 47.078v106.714c178.662-21.517 320.576-163.43 342.106-342.093h-106.752c-26.010 0-47.066-21.082-47.066-47.066s21.056-47.066 47.066-47.066h106.752c-21.53-178.662-163.443-320.576-342.106-342.093z" />
<glyph unicode="&#xe944;" glyph-name="location2" d="M937.882 934.4c-10.355 0-20.134-2.586-28.672-7.194l-851.507-456.154c-19.123-10.24-32.128-30.4-32.128-53.632 0-33.587 27.226-60.826 60.813-60.826h334.515v-334.515c0-33.574 27.226-60.813 60.813-60.813 23.194 0 43.379 13.005 53.632 32.166l456.179 851.482c4.557 8.525 7.181 18.291 7.181 28.659-0.013 33.6-27.264 60.826-60.826 60.826zM512.141 143.258v243.75c0 33.574-27.226 60.826-60.813 60.826h-243.763l656.026 351.437-351.45-656.013z" />
<glyph unicode="&#xe945;" glyph-name="lock" d="M846.4 569.6h-91.2v121.6c0 134.336-108.902 243.2-243.2 243.2-134.31 0-243.2-108.864-243.2-243.2v-121.6h-91.2c-33.587 0-60.8-27.213-60.8-60.8v-486.4c0-33.574 27.213-60.8 60.8-60.8h668.8c33.562 0 60.8 27.226 60.8 60.8v486.4c0 33.587-27.238 60.8-60.8 60.8zM360 691.2c0 83.814 68.186 152 152 152 83.802 0 152-68.186 152-152v-121.6h-304v121.6zM816 52.8h-608v425.6h608v-425.6z" />
<glyph unicode="&#xe946;" glyph-name="map" d="M747.827 860.698l-235.827-117.914-235.827 117.914-250.573-117.914v-707.482l250.573 117.914 235.827-117.914 235.827 117.914 250.573-117.914v707.482l-250.573 117.914zM231.949 230.157l-117.914-55.501v512l117.914 55.501v-512zM467.776 156.288l-147.392 73.702v509.747l147.392-73.728v-509.722zM703.616 229.99l-147.405-73.702v509.722l147.405 73.702v-509.722zM909.965 174.669l-117.914 55.501v512l117.914-55.501v-512z" />
<glyph unicode="&#xe947;" glyph-name="mark" d="M512 721.459c-83.942 0-151.974-68.032-151.974-151.974s68.032-151.974 151.974-151.974 151.974 68.032 151.974 151.974c0 83.942-68.032 151.974-151.974 151.974zM512 508.698c-33.536 0-60.787 27.277-60.787 60.8 0 33.51 27.251 60.787 60.787 60.787s60.787-27.277 60.787-60.787c0-33.523-27.251-60.8-60.787-60.8zM512 934.208c-201.434 0-364.723-163.341-364.723-364.723 0-72.87 21.389-140.749 58.202-197.734l242.65-375.36c13.53-20.928 37.094-34.79 63.872-34.79s50.342 13.862 63.872 34.79l242.65 375.36c36.8 56.986 58.202 124.864 58.202 197.734 0 201.395-163.302 364.723-364.723 364.723zM741.952 421.248l-229.952-355.699-229.926 355.674c-28.531 44.173-43.622 95.424-43.622 148.262 0 150.835 122.714 273.549 273.549 273.549 150.81 0 273.549-122.701 273.549-273.549 0-52.838-15.078-104.090-43.597-148.237z" />
<glyph unicode="&#xe948;" glyph-name="mark3" d="M517.082 934.4c-268.646 0-486.4-217.754-486.4-486.4 0-268.621 217.754-486.4 486.4-486.4 268.634 0 486.4 217.792 486.4 486.4-0.013 268.646-217.766 486.4-486.4 486.4zM724.147 784.179c25.677-15.821 50.15-34.47 72.371-56.73 22.259-22.234 40.883-46.669 56.742-72.384l-139.2-64.896c-7.488 10.394-15.667 20.454-24.998 29.811-9.344 9.344-19.43 17.523-29.798 24.998l64.883 139.2zM669.069 448c0-83.93-68.032-152-152-152s-151.987 68.070-151.987 152c0 83.955 68.045 152 152 152s151.987-68.032 151.987-152zM517.082 842.637c42.035 0 84.070-6.669 124.39-19.981l-64.858-139.11c-39.078 9.856-79.987 9.856-119.078 0l-64.845 139.085c40.32 13.338 82.355 20.006 124.39 20.006zM237.632 727.45c22.272 22.259 46.669 40.909 72.384 56.73l64.858-139.2c-10.355-7.475-20.39-15.654-29.773-24.998-9.357-9.382-17.485-19.418-25.037-29.811l-139.136 64.934c15.795 25.677 34.47 50.112 56.704 72.346zM142.426 323.635c-13.299 40.32-19.942 82.355-19.942 124.365 0 42.035 6.643 84.070 19.981 124.416l139.085-64.858c-9.83-39.066-9.856-80 0-119.040l-139.123-64.883zM310.016 111.846c-25.677 15.821-50.112 34.458-72.384 56.717-22.234 22.246-40.87 46.694-56.73 72.358l139.174 64.934c7.539-10.394 15.68-20.467 25.037-29.798 9.344-9.357 19.443-17.523 29.811-25.037l-64.909-139.174zM517.082 53.402c-42.035 0-84.045 6.656-124.39 19.955l64.87 139.123c39.066-9.843 79.974-9.843 119.053 0l64.858-139.123c-40.346-13.312-82.355-19.955-124.39-19.955zM796.531 168.563c-22.221-22.246-46.694-40.883-72.371-56.717l-64.883 139.174c10.355 7.514 20.416 15.654 29.798 25.037 9.331 9.331 17.51 19.418 25.024 29.798l139.174-64.896c-15.859-25.702-34.483-50.15-56.742-72.397zM752.627 388.518c9.83 39.040 9.83 79.974 0 119.014l139.085 64.87c13.325-40.346 19.981-82.355 19.981-124.39 0-42.022-6.656-84.045-19.955-124.365l-139.11 64.87z" />
<glyph unicode="&#xe949;" glyph-name="medal" d="M990.374 732.941l-127.642 182.4c-8.32 11.904-21.773 18.995-36.083 19.059h-628.672c-14.336-0.064-27.789-7.155-36.109-19.059l-127.654-182.4c-11.162-15.974-11.098-37.466 0.205-53.35l202.803-285.414c-18.355-39.142-28.915-82.611-28.915-128.576-0.013-167.642 136.358-304 304-304 167.616 0 304 136.358 304 304 0 45.965-10.573 89.434-28.928 128.576l202.816 285.414c11.277 15.885 11.366 37.376 0.179 53.35zM738.944 843.2l-64.768-91.2h-323.725l-64.806 91.2h453.299zM609.357 660.8l-65.946-92.774c-10.227 1.050-20.595 1.574-31.104 1.574s-20.902-0.538-31.155-1.574l-65.894 92.774h194.099zM291.098 473.472l-165.645 233.139 72.934 104.23 190.272-267.789c-37.056-16.576-70.093-40.371-97.562-69.581zM512.307 52.787c-117.35 0-212.8 95.475-212.8 212.813 0 117.312 95.45 212.8 212.8 212.8 117.325 0 212.813-95.475 212.813-212.8 0-117.338-95.488-212.813-212.813-212.813zM733.517 473.472c-27.469 29.21-60.506 53.018-97.587 69.581l190.285 267.789 72.922-104.23-165.619-233.139z" />
<glyph unicode="&#xe94a;" glyph-name="memo" d="M663.974 447.898h-303.936v-91.174h303.936v91.174zM663.974 265.536h-303.936v-91.174h303.936v91.174zM785.549 873.408h-91.187v15.194c0 25.178-20.416 45.594-45.594 45.594s-45.594-20.416-45.594-45.594v-15.194h-182.349v15.194c0 25.178-20.39 45.594-45.594 45.594-25.178 0-45.594-20.416-45.594-45.594v-15.194h-91.174c-50.355 0-91.187-40.806-91.187-91.187v-790.234c0-16.806 13.619-30.4 30.4-30.4h668.659c16.806 0 30.387 13.606 30.387 30.4v790.246c0 50.368-40.806 91.174-91.174 91.174zM785.549 52.787h-547.085v516.685h547.085v-516.685zM785.549 660.659h-547.085v121.574h91.187v-60.787h91.174v60.787h182.362v-60.787h91.174v60.787h91.187v-121.574z" />
<glyph unicode="&#xe94b;" glyph-name="mic" d="M512 235.2c125.952 0 228.006 102.067 228.006 228.006v243.2c0 125.926-102.054 227.994-228.006 227.994-125.926 0-228.006-102.067-228.006-228.006v-243.2c0.013-125.926 102.080-227.994 228.006-227.994zM375.206 706.394c0 75.43 61.363 136.806 136.806 136.806s136.806-61.363 136.806-136.806v-243.2c0-75.443-61.363-136.794-136.806-136.794s-136.806 61.35-136.806 136.794v243.2zM876.8 508.8c-25.165 0-45.606-20.39-45.606-45.606 0.013-176-143.206-319.194-319.194-319.194s-319.194 143.194-319.194 319.194c0 25.203-20.429 45.606-45.606 45.606s-45.606-20.39-45.606-45.606c0-211.264 159.629-385.011 364.8-407.731v-48.269c0.013-25.152 20.429-45.594 45.606-45.594s45.606 20.442 45.606 45.606v48.269c205.158 22.707 364.787 196.467 364.787 407.731 0.013 25.203-20.429 45.594-45.594 45.594z" />
<glyph unicode="&#xe94c;" glyph-name="milestone" d="M797.645 791.142h-228.749v57.178c0 31.59-25.613 57.19-57.19 57.19h-142.976c-31.59 0-57.19-25.6-57.19-57.19v-57.19h-228.749c-31.59 0.013-57.19-25.587-57.19-57.178v-285.952c0-31.578 25.6-57.19 57.19-57.19h228.762v-343.13c0-31.603 25.6-57.203 57.19-57.203h142.976c31.578 0 57.19 25.6 57.19 57.203v343.13h228.749l200.166 200.166-200.179 200.166zM397.338 819.725h85.786v-28.582h-85.786v28.582zM483.11 76.275h-85.786v314.534h85.786v-314.534zM762.138 476.582h-650.752v228.762h650.752l114.381-114.381-114.381-114.381z" />
<glyph unicode="&#xe94d;" glyph-name="mobile" d="M879.987 668.198l-0.038 206.080c0 32.486-26.368 58.906-58.854 58.816l-618.24 0.077c-32.512-0.051-58.88-26.394-58.867-58.931v-853.722c-0.026-32.525 26.368-58.893 58.893-58.854l618.214-0.064c32.486 0.064 58.854 26.394 58.854 58.918l0.064 206.106-0.026 441.574zM791.616 49.946l-559.347 0.051 0.051 794.829 559.334-0.064-0.038-794.816zM552.384 125.99c0.179-21.21-16.909-38.528-38.144-38.618-21.184-0.141-38.502 16.96-38.669 38.17-0.077 21.197 16.96 38.502 38.144 38.618 21.248 0.115 38.579-16.96 38.669-38.17z" />
<glyph unicode="&#xe94e;" glyph-name="monitor" d="M543.309 309.376c0-17.395-14.054-31.462-31.462-31.462-17.344 0-31.437 14.067-31.437 31.462 0 17.357 14.093 31.424 31.437 31.424 17.421 0 31.462-14.067 31.462-31.424zM475.149 228.762h73.459v-179.635h-73.459v179.635zM897.69 54.157c0-13.312-10.79-24.115-24.115-24.115h-723.392c-13.325 0-24.115 10.803-24.115 24.115v24.115c0 13.312 10.79 24.115 24.115 24.115h723.392c13.325 0 24.115-10.803 24.115-24.115v-24.115zM937.331 865.946h-850.957c-33.562 0-60.774-21.594-60.774-48.218v-578.701c0-26.637 27.213-48.23 60.774-48.23h850.957c33.574 0 60.8 21.594 60.8 48.23v578.701c0 26.624-27.213 48.218-60.8 48.218zM906.957 263.142h-790.182v530.47h790.182v-530.47z" />
<glyph unicode="&#xe94f;" glyph-name="music" d="M912.563 848.563h-801.126c-47.334 0-85.837-38.502-85.837-85.837v-629.453c0-47.334 38.502-85.837 85.837-85.837h801.126c47.334 0 85.837 38.502 85.837 85.837v629.453c0 47.334-38.502 85.837-85.837 85.837zM311.718 133.274h-200.282v629.453h114.445v-400.563c0-31.603 25.626-57.229 57.229-57.229h28.608v-171.661zM368.947 390.771h-57.229v371.955h57.229v-371.955zM626.445 133.274h-228.89v171.661c31.603 0 57.229 25.626 57.229 57.229v400.563h114.445v-400.563c0-31.603 25.626-57.229 57.229-57.229v-171.661zM655.066 762.726h57.229v-371.955h-57.229v371.955zM712.282 133.274v171.661h28.608c31.603 0 57.216 25.626 57.216 57.229v400.563h114.445l0.064-629.453h-200.333z" />
<glyph unicode="&#xe950;" glyph-name="nature" d="M572.749 934.106c-301.99 0-546.854-217.651-546.854-486.093 0-123.302 56.576-233.37 145.101-305.792-11.034-42.458-18.957-85.965-23.347-130.227-2.483-25.024 15.782-47.347 40.832-49.843 1.536-0.179 3.046-0.243 4.57-0.243 23.13 0 42.957 17.562 45.274 41.050 2.97 29.824 7.834 59.238 14.182 88.166 51.123-24.154 108.058-38.067 168.346-38.067 218.112 0 394.944 176.806 394.944 394.931 0 132.019 74.202 244.416 182.272 303.795-100.275 109.696-253.978 182.323-425.318 182.323zM724.646 448.013c0-167.514-136.294-303.808-303.795-303.808-51.661 0-100.275 13.043-142.925 35.878 51.507 146.624 146.944 275.558 275.738 367.565 10.24 7.296 16.538 18.099 18.458 29.606 1.92 11.456-0.563 23.731-7.859 33.946-7.322 10.253-18.099 16.576-29.606 18.483-11.507 1.92-23.731-0.563-33.971-7.859-136.090-97.242-239.040-231.219-298.701-383.987-52.493 54.63-84.941 128.589-84.941 210.176 0 217.766 204.416 394.944 455.718 394.944 102.95 0 201.331-30.592 281.498-85.99-81.843-81.216-129.613-191.885-129.613-308.954z" />
<glyph unicode="&#xe951;" glyph-name="option" d="M511.834 630.502c-100.698 0-182.336-81.613-182.336-182.336s81.638-182.336 182.336-182.336 182.336 81.613 182.336 182.336c-0.013 100.723-81.638 182.336-182.336 182.336zM511.834 357.005c-50.278 0-91.174 40.896-91.174 91.174s40.896 91.174 91.174 91.174c50.266 0 91.174-40.896 91.174-91.174-0.013-50.278-40.909-91.174-91.174-91.174zM937.293 508.954h-35.558c-9.856 63.654-34.752 122.202-71.194 172.006l28.122 28.134c11.917 11.866 17.843 27.418 17.843 42.97s-5.926 31.104-17.843 42.97c-11.866 11.866-27.418 17.805-42.957 17.805s-31.104-5.939-42.97-17.805l-28.134-28.134c-49.805 36.416-108.326 61.312-171.981 71.168v35.546c-0.013 33.574-27.226 60.787-60.787 60.787s-60.787-27.213-60.787-60.787v-35.546c-63.654-9.856-122.202-34.778-172.006-71.194l-28.16 28.16c-11.878 11.904-27.43 17.83-43.008 17.83-15.514 0-31.066-5.926-42.931-17.83-11.878-11.878-17.805-27.43-17.805-42.97s5.926-31.104 17.805-42.97l28.16-28.198c-36.416-49.766-61.312-108.288-71.168-171.955h-35.546c-33.574 0.013-60.787-27.213-60.787-60.774 0-33.574 27.213-60.787 60.787-60.787h35.546c9.856-63.654 34.752-122.214 71.194-172.006l-28.16-28.122c-11.904-11.904-17.83-27.482-17.805-43.098 0.026-15.552 5.965-31.040 17.805-42.854 11.878-11.904 27.456-17.805 42.97-17.805 15.578 0 31.13 5.926 42.97 17.805l28.173 28.134c49.792-36.416 108.314-61.312 171.981-71.168v-35.558c0-33.562 27.213-60.774 60.787-60.774s60.787 27.213 60.787 60.774v35.558c63.654 9.856 122.176 34.752 171.981 71.194l28.134-28.122c11.904-11.917 27.469-17.843 43.059-17.818 15.552 0.026 31.078 5.965 42.88 17.818 11.917 11.866 17.818 27.456 17.818 42.957 0 15.59-5.939 31.142-17.818 42.97l-28.122 28.096c36.442 49.805 61.338 108.365 71.194 172.006h35.558c33.562 0 60.774 27.213 60.774 60.787-0.026 33.574-27.238 60.8-60.8 60.8zM511.834 144.269c-167.552 0-303.898 136.333-303.898 303.898s136.333 303.898 303.898 303.898 303.898-136.333 303.898-303.898-136.346-303.898-303.898-303.898z" />
<glyph unicode="&#xe952;" glyph-name="pattern" d="M512 934.4c-268.198 0-486.4-218.202-486.4-486.4s218.202-486.4 486.4-486.4 486.4 218.202 486.4 486.4-218.202 486.4-486.4 486.4zM887.462 570.726l-270.221 130.278 131.072 62.989c64.333-48.218 113.587-115.302 139.149-193.267zM412.314 829.965c31.91 8.333 65.19 13.235 99.686 13.235 48.576 0 94.874-9.229 137.894-25.331l-270.093-129.869 32.512 141.965zM353.741 574.285l158.349 76.122 158.208-76.262 39.040-171.2-109.555-137.344h-175.693l-109.517 137.6 39.168 171.085zM308.762 786.291l-66.867-291.853-90.752 113.997c33.165 74.214 88.538 136.205 157.619 177.856zM161.754 265.6c-28.57 54.63-44.954 116.608-44.954 182.4 0 17.779 1.574 35.149 3.866 52.314l186.842-234.714h-145.754zM436.006 60.314c-81.139 15.846-153.306 56.704-208.525 114.086h299.546l-91.021-114.086zM548.186 54.643l187.059 234.534 32.384-142.029c-60.339-51.366-136.141-84.915-219.443-92.506zM842.035 231.194l-66.624 292.275 131.162-63.232c0.128-4.096 0.627-8.102 0.627-12.237 0-80.038-24.077-154.496-65.165-216.806z" />
<glyph unicode="&#xe953;" glyph-name="pen" d="M988.006 671.693l-252.429 252.378c-7.117 7.13-16.435 10.611-25.792 10.611s-18.675-3.482-25.792-10.611l-658.189-658.189v-303.987h304l658.202 658.176c7.117 7.117 10.586 16.486 10.586 25.818 0 9.344-3.482 18.675-10.586 25.805zM117.005 53.069v148.326l148.314-148.326h-148.314zM346.829 100.531l-182.4 182.387 421.901 421.914 182.413-182.4-421.914-421.901zM833.229 586.931l-182.4 182.4 58.957 58.944 182.4-182.387-58.957-58.957z" />
<glyph unicode="&#xe954;" glyph-name="pencil" d="M993.19 574.17c-30.349 182.016-173.005 324.672-354.995 354.982-11.571 1.984-23.514-0.678-33.178-7.36-106.522-73.216-223.91-127.027-348.928-159.91-17.050-4.493-29.926-18.432-33.088-35.75-41.741-229.542-107.046-455.578-194.125-671.962-6.797-16.87-2.842-36.173 10.010-49.024l30.259-30.246c8.691-8.691 20.275-13.299 32.102-13.299 5.696 0 11.469 1.062 16.922 3.277 216.384 87.078 442.445 152.371 671.962 194.099 17.344 3.187 31.283 16.077 35.75 33.126 32.922 125.043 86.72 242.432 159.936 348.89 6.656 9.69 9.318 21.606 7.373 33.178zM745.818 243.059c-173.888-33.062-345.613-79.539-512.768-138.189l293.978 293.965c17.754-8.474 37.338-13.606 58.291-13.645h0.038c75.072 0 136.154 61.069 136.154 136.154 0 74.995-61.056 136.064-136.154 136.154-75.059-0.026-136.102-61.107-136.154-136.218 0.026-20.915 5.171-40.512 13.645-58.266l-293.939-293.926c58.65 167.117 105.101 338.842 138.163 512.73 118.669 34.214 230.643 86.106 333.53 154.47 129.69-28.544 231.181-130.010 259.725-259.699-68.416-102.874-120.269-214.861-154.509-333.53zM539.968 521.293c0.026 25.062 20.39 45.44 45.325 45.44 25.050-0.026 45.44-20.39 45.44-45.389 0-25.024-20.352-45.376-45.35-45.376-25.037 0-45.389 20.378-45.414 45.325z" />
<glyph unicode="&#xe955;" glyph-name="people" d="M730.522 399.398c34.406 55.936 55.066 125.222 55.066 200.602 0 184.691-122.483 334.4-273.587 334.4-151.117 0-273.613-149.709-273.613-334.4 0-75.379 20.659-144.666 55.078-200.602-141.402-67.085-237.478-197.005-237.478-346.598v-30.4c0-33.574 27.226-60.8 60.8-60.8h790.4c33.562 0 60.826 27.226 60.826 60.8v30.4c0 149.594-96.090 279.514-237.491 346.598zM512 843.2c98.854 0 182.4-111.36 182.4-243.2 0-131.814-83.546-243.2-182.4-243.2-98.88 0-182.413 111.386-182.413 243.2 0 131.84 83.533 243.2 182.413 243.2zM147.187 52.8c0 120.653 84.813 224.934 207.334 274.010 44.557-38.438 98.816-61.21 157.478-61.21 58.65 0 112.896 22.771 157.453 61.21 122.522-49.075 207.334-153.357 207.334-274.010h-729.6z" />
<glyph unicode="&#xe956;" glyph-name="pin" d="M984.205 640.922l-279.232 279.27c-8.678 8.73-21.094 13.35-32.768 13.888-12.288-0.179-23.974-5.76-32.435-14.605-49.446-51.814-73.126-122.445-65.741-193.024l-91.878-91.878c-43.776 16.909-90.842 25.754-137.869 25.754-101.325 0-196.582-39.411-268.134-110.989l-6.771-6.707c-8.563-8.538-13.402-20.186-13.402-32.282 0-12.045 4.774-23.68 13.35-32.23l186.701-186.739-223.808-280.448c-4.147-5.222-6.618-11.738-6.618-18.944 0-16.794 13.594-30.374 30.387-30.374 7.181 0 13.773 2.432 18.931 6.579l280.448 223.834 186.714-186.726c8.55-8.55 20.147-13.363 32.243-13.363 12.070 0 23.68 4.813 32.23 13.363l6.758 6.758c107.136 107.136 139.546 266.675 85.299 406.106l91.878 91.878c70.963-7.296 141.504 16.627 192.96 65.651 8.858 8.486 14.49 20.186 14.643 32.474 0.115 12.288-5.197 24.102-13.888 32.755zM815.731 599.974c-10.586-0.064-21.21 1.062-31.667 3.264-15.078 3.2-30.771-1.498-41.69-12.352l-130.266-130.278c-13.798-13.773-17.306-34.842-8.666-52.352 49.331-100.134 36.352-218.317-30.746-304.666l-405.094 405.146c50.304 39.181 111.846 60.429 176.678 60.429 44.25 0 88.486-10.266 127.962-29.734 17.446-8.602 38.554-5.158 52.378 8.666l130.253 130.278c10.931 10.867 15.59 26.598 12.352 41.664-2.227 10.56-3.328 21.133-3.328 31.693 0 22.861 5.094 45.286 14.874 65.766l202.726-202.816c-20.237-9.664-42.906-14.707-65.766-14.707z" />
<glyph unicode="&#xe957;" glyph-name="power" d="M512 569.754c25.178 0 45.594 20.416 45.594 45.581v273.485c0 25.165-20.416 45.581-45.594 45.581-25.19 0-45.581-20.416-45.581-45.581v-273.485c0-25.165 20.39-45.581 45.581-45.581zM779.61 819.942c-7.744 5.363-16.589 7.987-25.37 8.064-14.656 0.179-29.107-6.669-38.042-19.584-14.336-20.71-9.203-49.114 11.507-63.45 102.758-71.194 164.134-187.814 164.134-311.974 0-209.446-170.406-379.853-379.853-379.853s-379.84 170.406-379.84 379.853c0 124.16 61.338 240.781 164.134 311.974 20.685 14.336 25.856 42.739 11.507 63.45-9.101 13.146-23.949 20.032-38.874 19.558-8.525-0.243-17.037-2.854-24.538-8.038-127.373-88.23-203.392-232.858-203.392-386.931 0.013-259.725 211.302-471.002 471.014-471.002 259.725 0 471.002 211.277 471.002 471.002 0 154.074-76.032 298.714-203.392 386.931z" />
<glyph unicode="&#xe958;" glyph-name="rodding" d="M816 52.8h-15.206v121.6c0 31.117-11.699 59.507-30.925 81.037l-136 152.038c-9.626 10.79-15.475 24.96-15.475 40.525s5.85 29.773 15.475 40.525l136 152.051c19.226 21.491 30.925 49.907 30.925 81.024v121.6h15.206c25.178 0 45.606 20.429 45.606 45.606s-20.429 45.594-45.606 45.594h-608c-25.178 0-45.606-20.429-45.606-45.606s20.442-45.606 45.606-45.606h15.206v-121.6c0-31.117 11.686-59.52 30.925-81.024l136-152.051c9.626-10.752 15.475-24.96 15.475-40.525s-5.85-29.734-15.475-40.525l-136-152.026c-19.238-21.53-30.925-49.92-30.925-81.037v-121.6h-15.206c-25.178 0-45.606-20.429-45.606-45.606 0-25.19 20.442-45.606 45.606-45.606h608c25.178 0 45.606 20.416 45.606 45.606 0 25.178-20.429 45.606-45.606 45.606zM709.606 52.8h-395.213v121.6c0 9.613 4.224 16.32 7.731 20.25l136.026 152.051c24.947 27.917 38.669 63.846 38.669 101.299 0 37.427-13.709 73.421-38.682 101.325l-136 152.064c-3.52 3.93-7.731 10.624-7.731 20.224v121.6h395.213v-121.6c0-9.6-4.186-16.294-7.718-20.224l-136.051-152.102c-24.896-27.866-38.656-63.859-38.656-101.286 0-37.453 13.747-73.382 38.707-101.325l135.974-152c3.494-3.955 7.718-10.662 7.718-20.275v-121.6z" />
<glyph unicode="&#xe959;" glyph-name="search" d="M633.523 934.131c-201.331 0-364.582-163.251-364.582-364.582 0-84.237 28.838-161.587 76.851-223.309l-306.573-306.56c-8.896-8.896-13.35-20.531-13.35-32.23 0-11.648 4.454-23.322 13.35-32.23s20.557-13.35 32.23-13.35 23.322 4.454 32.23 13.35l306.547 306.573c61.722-48.026 139.072-76.851 223.296-76.851 201.344 0 364.595 163.251 364.595 364.582s-163.238 364.608-364.595 364.608zM633.523 296.102c-150.771 0-273.434 122.65-273.434 273.434s122.662 273.434 273.434 273.434c150.784 0 273.446-122.65 273.446-273.434s-122.662-273.434-273.446-273.434z" />
<glyph unicode="&#xe95a;" glyph-name="setting" d="M231.782 736.73v80.064c0 24.435-19.814 44.262-44.262 44.262s-44.262-19.827-44.262-44.262v-80.064c-68.006-19.302-118.003-81.856-118.003-155.955 0-74.138 49.997-136.64 118.003-155.994v-345.574c0-24.41 19.814-44.25 44.262-44.25s44.262 19.84 44.262 44.25v345.574c68.006 19.354 118.016 81.869 118.016 155.994 0 74.099-50.010 136.64-118.016 155.955zM187.52 507.008c-40.666 0-73.754 33.062-73.754 73.754 0 40.64 33.088 73.766 73.754 73.766 40.678 0 73.766-33.114 73.766-73.766 0.013-40.678-33.088-73.754-73.766-73.754zM556.314 471.194v345.6c0 24.435-19.827 44.262-44.25 44.262-24.435 0-44.262-19.827-44.262-44.262v-345.6c-67.994-19.302-118.003-81.856-118.003-155.955s50.010-136.666 118.003-156.006v-80.038c0-24.41 19.827-44.25 44.262-44.25 24.422 0 44.25 19.84 44.25 44.25v80.038c68.006 19.341 118.029 81.894 118.029 156.006s-50.022 136.653-118.029 155.955zM512.064 241.472c-40.691 0-73.766 33.075-73.766 73.766s33.075 73.766 73.766 73.766c40.678 0 73.754-33.075 73.754-73.766s-33.062-73.766-73.754-73.766zM880.858 736.73v80.064c0 24.435-19.827 44.262-44.275 44.262-24.435 0-44.237-19.827-44.237-44.262v-80.064c-68.019-19.302-118.016-81.856-118.016-155.955 0-74.138 49.984-136.64 118.016-155.994v-345.574c0-24.41 19.802-44.25 44.237-44.25 24.448 0 44.275 19.84 44.275 44.25v345.574c67.994 19.354 118.016 81.869 118.016 155.994 0 74.099-50.022 136.64-118.016 155.955zM836.582 507.008c-40.666 0-73.741 33.062-73.741 73.754 0 40.64 33.075 73.766 73.741 73.766s73.766-33.114 73.766-73.766c0-40.678-33.101-73.754-73.766-73.754z" />
<glyph unicode="&#xe95b;" glyph-name="shield" d="M878.592 733.274c-126.234 36.557-242.406 101.734-339.392 190.566-7.693 7.027-17.459 10.56-27.238 10.56-9.715 0-19.456-3.507-27.136-10.534-96.986-88.832-213.158-154.035-339.43-190.592-25.984-7.514-43.917-31.322-43.917-58.381v-105.114c7.13-265.254 167.194-502.362 410.522-608.179 243.315 105.818 403.379 342.925 410.509 608.166v105.114c0 27.085-17.92 50.854-43.917 58.394zM831.27 571.046c-6.195-214.886-130.099-410.214-319.27-508.454-189.197 98.253-313.088 293.581-319.283 508.454v81.242c116.224 36.8 225.434 96.461 319.283 174.285 93.837-77.837 203.046-137.485 319.27-174.285v-81.242z" />
<glyph unicode="&#xe95c;" glyph-name="shop" d="M915.085 753.766h-691.546l-126.771 126.758c-7.539 7.552-17.958 12.211-29.478 12.211-23.014 0-41.69-18.65-41.69-41.69 0-11.507 4.672-21.939 12.211-29.478l98.97-98.97v-413.594c0-46.054 37.35-83.392 83.392-83.392h528.141c33.562 0 62.541 19.891 75.763 48.499l166.758 361.331c4.902 10.637 7.629 22.451 7.629 34.918 0 46.080-37.35 83.405-83.379 83.405zM748.314 309.018h-528.141v222.374h630.784l-102.643-222.374zM889.459 614.771h-669.286v55.603l694.963 0.051-25.677-55.654zM247.974 170.035c-46.029 0-83.392-37.312-83.392-83.392 0-46.067 37.35-83.392 83.392-83.392 46.067 0 83.392 37.325 83.392 83.392 0 46.080-37.338 83.392-83.392 83.392zM692.71 170.035c-46.042 0-83.392-37.312-83.392-83.392 0-46.067 37.35-83.392 83.392-83.392s83.392 37.325 83.392 83.392c0 46.080-37.35 83.392-83.392 83.392z" />
<glyph unicode="&#xe95d;" glyph-name="shop2" d="M917.171 637.12h-137.664c-0.998 2.765-2.022 5.478-3.546 7.936l-135.078 216.141c-7.206 11.456-19.917 19.085-34.419 19.085-22.362 0-40.525-18.138-40.525-40.525 0-7.859 2.24-15.232 6.131-21.453l113.254-181.171h-346.816l113.229 181.171c3.878 6.221 6.131 13.594 6.131 21.453 0 22.4-18.15 40.525-40.525 40.525-14.515 0-27.238-7.629-34.406-19.085l-135.078-216.128c-1.536-2.458-2.56-5.171-3.533-7.936h-137.664c-44.762-0.013-81.062-36.288-81.062-81.075v-54.029c0-38.387 26.778-70.374 62.618-78.72l102.758-349.466c9.894-33.587 40.986-58.125 77.786-58.125h486.31c36.813 0 67.891 24.538 77.773 58.125l102.797 349.466c35.827 8.346 62.579 40.333 62.579 78.72v54.029c-0.013 44.787-36.301 81.062-81.050 81.062zM755.059 96.794l-486.336-0.051-95.322 324.25h677.043l-95.386-324.198zM917.171 502.042h-810.509v54.029h810.522v-54.029z" />
<glyph unicode="&#xe95e;" glyph-name="spread" d="M994.931 522.65l-114.458 257.562c-6.682 15.040-21.734 25.523-39.219 25.523-20.442 0-37.517-14.259-41.882-33.37l-113.075-497.574-148.787 361.242c-6.426 15.629-21.798 26.611-39.706 26.611-17.728 0-32.934-10.752-39.462-26.048l-135.232-315.571-73.062 146.15c-7.040 14.093-21.606 23.744-38.426 23.744-13.248 0-25.126-6.003-32.986-15.45l-143.091-171.712c-6.208-7.462-9.946-17.024-9.946-27.469 0-23.706 19.226-42.931 42.931-42.931 13.261 0 25.126 6.003 32.986 15.45l101.056 121.28 85.094-170.227c7.040-14.067 21.606-23.731 38.426-23.731 17.728 0 32.922 10.739 39.462 26.048l131.443 306.739 161.434-392.038c6.426-15.629 21.798-26.611 39.718-26.611 20.429 0 37.517 14.285 41.856 33.37l114.483 503.68 61.978-139.482c6.682-15.002 21.747-25.523 39.232-25.523 23.718 0 42.931 19.238 42.931 42.944 0 6.195-1.306 12.083-3.699 17.395z" />
<glyph unicode="&#xe95f;" glyph-name="star" d="M996.787 554.931c-4.122 13.645-15.398 23.923-29.325 26.778l-300.442 60.147-119.821 269.683c-6.17 13.901-20.032 22.861-35.238 22.861s-29.030-9.024-35.264-22.925l-119.757-269.619-300.531-60.147c-13.888-2.854-25.062-13.069-29.184-26.714-4.16-13.478-0.41-28.211 9.677-38.413l209.293-209.152-58.47-299.494c-2.918-14.605 0.858-28.787 12.173-37.875 6.746-5.312 15.411-8.256 24.41-8.256 5.402 0 10.714 1.126 15.488 3.328l272.179 120.704 272.627-120.883c4.608-2.227 9.754-3.354 15.296-3.354 8.678 0 17.19 2.931 23.898 8.282 11.379 9.024 15.206 23.629 12.442 38.003l-58.624 299.533 209.472 209.152c10.086 10.099 13.824 24.832 9.702 38.362zM713.19 371.981c-21.504-21.478-30.899-52.224-25.062-82.061l39.078-199.731-178.253 79.027c-11.75 5.222-24.371 7.834-36.992 7.834-12.582 0-25.178-2.611-36.954-7.834l-178.342-79.104 39.066 199.834c5.824 29.798-3.558 60.531-25.062 81.984l-139.75 139.686 203.891 40.794c29.043 5.824 53.44 25.344 65.459 52.403l71.693 161.408 71.731-161.408c12.006-27.046 36.403-46.579 65.434-52.403l203.955-40.819-139.891-139.61z" />
<glyph unicode="&#xe960;" glyph-name="stop" d="M512 934.4c-268.646 0-486.4-217.754-486.4-486.4 0-268.608 217.754-486.4 486.4-486.4 268.634 0 486.4 217.792 486.4 486.4 0 268.646-217.766 486.4-486.4 486.4zM116.8 448c0 217.933 177.293 395.2 395.2 395.2 92.57 0 177.587-32.218 245.018-85.709l-554.509-554.509c-53.491 67.43-85.709 152.474-85.709 245.018zM512 52.787c-92.557 0-177.587 32.218-245.005 85.709l554.509 554.509c53.504-67.418 85.709-152.448 85.709-245.005 0-217.907-177.306-395.213-395.213-395.213z" />
<glyph unicode="&#xe961;" glyph-name="student" d="M969.83 604.685l-432.973 216.486c-7.283 3.648-15.488 5.67-24.179 5.67s-16.883-2.035-24.179-5.67l-432.96-216.486c-17.754-8.883-29.939-27.238-29.939-48.435 0-21.184 12.186-39.565 29.939-48.435l24.179-12.070v-190.528c-16.115-9.37-27.059-26.65-27.059-46.63 0-29.875 24.23-54.131 54.118-54.131s54.118 24.256 54.118 54.131c0 19.981-10.944 37.248-27.059 46.63v163.456l81.178-40.589v-169.498c0-104.602 133.261-189.427 297.651-189.427s297.651 84.826 297.651 189.427v169.485l159.488 79.731c17.766 8.87 29.939 27.251 29.939 48.435 0.013 21.21-12.16 39.565-29.914 48.448zM729.165 258.573c0-50.048-94.554-108.224-216.486-108.224s-216.486 58.176-216.486 108.224v128.896l192.307-96.154c7.283-3.648 15.475-5.67 24.179-5.67s16.896 2.022 24.179 5.67l192.294 96.154v-128.896zM512.678 369.997l-372.506 186.24 372.506 186.253 372.506-186.253-372.506-186.24z" />
<glyph unicode="&#xe962;" glyph-name="subtract" d="M663.066 508.902h-304.064c-33.587 0-60.813-27.226-60.813-60.813 0-33.6 27.226-60.8 60.813-60.8h304.051c33.587 0 60.826 27.213 60.826 60.8 0.013 33.587-27.226 60.813-60.813 60.813zM511.040 934.592c-268.698 0-486.502-217.792-486.502-486.502 0-268.685 217.805-486.49 486.502-486.49 268.685 0 486.502 217.805 486.502 486.49 0 268.71-217.818 486.502-486.502 486.502zM511.040 52.813c-217.946 0-395.277 177.331-395.277 395.277s177.331 395.277 395.277 395.277 395.29-177.331 395.29-395.277c0-217.946-177.344-395.277-395.29-395.277z" />
<glyph unicode="&#xe963;" glyph-name="tag" d="M980.045 916.070c-11.392 11.392-26.854 17.805-42.957 17.805h-369.818c-16.090 0-31.565-6.4-42.957-17.805l-480.909-480.934c-11.405-11.392-17.805-26.854-17.805-42.957s6.4-31.565 17.805-42.957l369.805-369.818c11.853-11.866 27.418-17.805 42.957-17.805 15.565 0 31.117 5.939 42.97 17.805l480.909 480.934c11.405 11.392 17.805 26.854 17.805 42.995v369.766c0 16.115-6.4 31.578-17.805 42.97zM456.166 65.331l-326.822 326.848 65.229 65.254 326.835-326.848-65.242-65.254zM906.714 515.904l-320.845-320.896-326.848 326.861 320.87 320.858h326.822v-326.822zM724.416 599.667c33.562 0 60.762 27.2 60.762 60.774 0 33.562-27.2 60.762-60.762 60.762s-60.762-27.2-60.762-60.762c0-33.574 27.2-60.774 60.762-60.774z" />
<glyph unicode="&#xe964;" glyph-name="tell" d="M915.494 324.928l-157.478 80.96c-38.579 19.878-88.435 13.094-120.384-16.333l-18.406-16.794c-17.83-16.435-45.632-20.25-67.238-9.037-53.696 27.597-96.666 70.592-124.352 124.224-11.328 21.952-7.718 48.947 9.075 67.187l16.845 18.342c18.074 19.699 28.019 45.158 28.019 71.795 0 16.806-4.070 33.6-11.75 48.55l-80.998 157.363c-26.202 50.918-78.003 82.547-135.168 82.547-33.613 0-65.446-10.752-92.058-31.091l-47.898-36.506c-75.187-57.318-106.099-156.237-76.966-246.208 97.050-299.328 332.237-540.685 629.146-645.734 23.987-8.486 49.062-12.736 74.483-12.736 59.469 0 117.44 24.141 159.104 66.342l54.835 55.424c28.301 28.659 43.878 66.522 43.878 106.637 0 57.152-31.68 108.89-82.688 135.066zM889.421 147.251l-54.81-55.488c-35.187-35.571-90.918-48.474-138.304-31.693-270.349 95.629-484.48 315.43-572.838 587.93-17.242 53.235 1.050 111.808 45.555 145.754l47.923 36.493c10.598 8.128 23.283 12.403 36.736 12.403 22.848 0 43.597-12.698 54.106-33.114l80.973-157.376c1.088-2.138 1.664-4.442 1.664-6.886 0-4.8-2.189-8.243-4.032-10.202l-16.819-18.33c-42.496-46.157-51.699-114.714-22.912-170.496 36.352-70.554 92.966-127.104 163.61-163.494 54.835-28.25 125.274-18.752 170.65 22.886l18.406 16.858c2.957 2.726 10.701 5.632 17.050 2.394l157.504-80.947c20.48-10.496 33.165-31.219 33.165-54.067-0.051-16.038-6.31-31.181-17.626-42.624z" />
<glyph unicode="&#xe965;" glyph-name="temperature" d="M542.323 440.115v357.798c0 75.264-61.21 136.486-136.474 136.486-75.251 0-136.474-61.222-136.474-136.486v-357.811c-74.509-46.758-121.318-129.574-121.318-218.432 0-142.131 115.622-257.792 257.792-257.792 142.131 0 257.792 115.661 257.792 257.792 0 88.87-46.797 171.674-121.318 218.445zM405.85 54.874c-91.994 0-166.797 74.842-166.797 166.797 0 63.859 37.44 122.944 95.36 150.528 15.846 7.552 25.946 23.539 25.946 41.075v384.64c0 25.088 20.403 45.491 45.491 45.491s45.504-20.403 45.504-45.491v-384.64c0-17.536 10.061-33.523 25.907-41.075 57.958-27.571 95.398-86.669 95.398-150.528 0-91.955-74.842-166.797-166.81-166.797zM633.318 813.082v-90.982h242.624v90.982h-242.624zM633.318 540.134h242.624v90.982h-242.624v-90.982z" />
<glyph unicode="&#xe966;" glyph-name="timer" d="M556.224 477.158v177.203c0 24.41-19.814 44.211-44.224 44.211-24.448 0-44.224-19.802-44.224-44.211v-177.19c-17.83-13.44-29.478-34.573-29.478-58.637s11.648-45.197 29.478-58.637v-59.277c0-24.422 19.776-44.224 44.224-44.224 24.41 0 44.224 19.802 44.224 44.224v59.277c17.779 13.44 29.478 34.573 29.478 58.637s-11.699 45.184-29.478 58.624zM875.264 740.109l41.536-41.549 52.122 52.109-124.774 124.774-52.096-52.109 41.536-41.574-20.48-20.442c-63.194 55.526-141.606 93.76-228.25 107.738-4.198 36.736-35.034 65.344-72.858 65.344-37.862 0-68.659-28.608-72.858-65.344-217.357-35.072-384.064-223.424-384.064-450.534 0-251.942 204.954-456.922 456.922-456.922 251.955 0 456.922 204.979 456.922 456.922 0 115.379-43.328 220.595-114.125 301.12l20.467 20.467zM880.474 418.522c0-203.187-165.286-368.486-368.474-368.486s-368.486 165.299-368.486 368.486c0 203.187 165.299 368.486 368.486 368.486s368.474-165.299 368.474-368.486z" />
<glyph unicode="&#xe967;" glyph-name="tool" d="M967.77 689.51c-6.822 16-21.158 27.571-38.259 30.912-3.302 0.653-6.643 0.947-9.933 0.947-13.773 0-27.136-5.402-37.069-15.347l-162.24-162.214c-2.726-2.726-6.528-4.454-10.739-4.454s-8.013 1.728-10.752 4.454l-91.174 91.187c-2.778 2.752-4.454 6.554-4.454 10.752 0 4.211 1.677 8.013 4.454 10.739l162.227 162.202c12.314 12.326 17.728 29.952 14.4 47.053-3.302 17.088-14.886 31.411-30.874 38.259-47.296 20.198-96.947 30.4-145.549 30.4-82.035 0-160.96-29.094-220.211-88.307-58.061-58.086-87.322-135.181-88.397-215.552-0.538-39.36 5.875-79.488 18.662-118.554l-274.445-274.445c-13.082-13.069-18.957-30.618-17.626-47.718 1.101-13.914 6.976-27.571 17.626-38.246l171.93-171.93c11.866-11.878 27.43-17.818 42.97-17.818s31.104 5.939 42.982 17.818l274.483 274.445c37.581-12.288 76.096-18.483 114.010-18.483 81.984 0 160.87 29.018 220.096 88.243 94.246 94.272 112.179 238.566 57.882 365.658zM845.427 388.326c-39.693-39.693-94.95-61.542-155.622-61.542-28.506 0-57.331 4.723-85.67 13.978-9.293 3.034-18.854 4.531-28.339 4.531-23.808 0-47.104-9.331-64.474-26.726l-252.992-252.954-128.947 128.934 252.966 252.954c24.282 24.282 32.858 60.147 22.195 92.8-9.882 30.246-14.758 60.787-14.157 90.24 1.19 58.176 22.682 112.013 61.683 151.053 39.744 39.744 95.040 61.619 155.738 61.619 17.254 0 34.854-1.779 52.301-5.248l-116.621-116.659c-20.326-20.096-31.526-46.925-31.526-75.571 0-28.403 11.072-55.13 31.181-75.213l91.174-91.187c20.096-20.096 46.81-31.168 75.226-31.168 28.403 0 55.13 11.072 75.213 31.168l116.992 116.979c15.578-78.541-4.378-156.019-56.32-207.987z" />
<glyph unicode="&#xe968;" glyph-name="trash" d="M861.606 782.4h-167.206v91.2c0 33.574-27.226 60.8-60.813 60.8h-243.187c-33.574 0-60.8-27.226-60.8-60.8v-91.2h-167.194c-25.178 0-45.606-20.39-45.606-45.606 0-25.178 20.429-45.606 45.606-45.606h15.206v-668.787c0-33.587 27.226-60.813 60.8-60.813h547.2c33.574 0 60.8 27.226 60.8 60.813v668.8h15.206c25.178 0 45.606 20.429 45.606 45.606-0.026 25.203-20.454 45.594-45.619 45.594zM420.8 843.2h182.4v-60.8h-182.4v60.8zM755.2 52.8h-486.4v638.4h486.4v-638.4z" />
<glyph unicode="&#xe969;" glyph-name="tree" d="M929.331 105.651l-177.203 252.8c32.691 8.87 64.883 19.533 96.269 31.91 12.992 5.158 22.925 15.949 26.931 29.312 4.032 13.389 1.702 27.853-6.31 39.283l-319.616 456c-8.55 12.198-22.976 19.469-37.414 19.443-14.426 0-28.851-7.27-37.402-19.443l-319.616-456c-8.013-11.43-10.342-25.894-6.298-39.283 3.981-13.363 13.926-24.154 26.893-29.312 31.411-12.378 63.59-23.040 96.307-31.91l-177.229-252.8c-8.013-11.443-10.33-25.92-6.298-39.283 3.981-13.35 13.926-24.166 26.931-29.274 126.861-50.112 260.326-75.494 396.71-75.494 136.41 0 269.901 25.382 396.749 75.482 12.992 5.107 22.912 15.923 26.918 29.274 4.045 13.376 1.69 27.853-6.323 39.296zM203.622 102.093l181.786 259.366c8.896 12.672 10.739 28.966 4.915 43.277-5.811 14.349-18.483 24.768-33.69 27.674-31.206 5.965-62.131 13.773-92.48 23.334l247.834 353.549 247.821-353.549c-30.31-9.562-61.261-17.357-92.442-23.334-15.206-2.918-27.917-13.325-33.702-27.674-5.811-14.31-3.981-30.605 4.902-43.277l181.798-259.379c-199.066-65.421-417.69-65.421-616.742 0.013z" />
<glyph unicode="&#xe96a;" glyph-name="umbrella" d="M557.594 871.296v17.51c0 25.165-20.416 45.594-45.594 45.594s-45.594-20.429-45.594-45.594v-17.51c-238.477-23.014-425.549-224.41-425.549-468.826 0-21.734 15.334-40.461 36.646-44.71 21.312-4.186 42.662 7.066 51.021 27.162 15.974 38.349 53.133 63.142 94.694 63.142 41.549 0 78.72-24.794 94.682-63.142 6.771-16.269 22.323-27.162 39.923-28.006 18.317-0.973 34.138 8.525 42.394 24.077 14.579 27.341 38.285 47.616 66.176 58.368v-340.864c0-25.139-20.467-45.594-45.606-45.594s-45.606 20.454-45.606 45.594c0 25.178-20.416 45.606-45.594 45.606s-45.606-20.429-45.606-45.606c0-75.43 61.363-136.781 136.794-136.781s136.781 61.35 136.781 136.781v340.864c27.878-10.752 51.597-31.027 66.176-58.368 8.256-15.526 24.038-24.666 42.394-24.077 17.6 0.832 33.152 11.725 39.923 28.006 15.974 38.349 53.12 63.142 94.682 63.142s78.72-24.794 94.694-63.142c7.194-17.254 23.949-28.045 42.048-28.045 2.97 0 5.978 0.282 8.973 0.883 21.312 4.25 36.646 22.976 36.646 44.71 0.051 244.416-187.021 445.811-425.498 468.826zM800.768 539.251c-53.786 0-103.693-21.99-139.456-59.136-39.77 37.466-92.826 59.136-149.312 59.136s-109.542-21.67-149.299-59.136c-35.776 37.133-85.67 59.136-139.469 59.136-24.666 0-48.512-4.634-70.566-13.21 51.392 149.043 193.075 256.371 359.334 256.371 166.246 0 307.942-107.341 359.309-256.384-22.042 8.589-45.875 13.222-70.541 13.222z" />
<glyph unicode="&#xe96b;" glyph-name="video" d="M937.6 736.794h-30.4l-182.4-182.4v152c0 33.574-27.226 60.8-60.8 60.8h-577.6c-33.574 0-60.8-27.226-60.8-60.8v-516.8c0-33.574 27.226-60.8 60.8-60.8h577.6c33.574 0 60.8 27.226 60.8 60.8v152l182.4-182.4h30.4c33.574 0 60.8 27.226 60.8 60.8v456c0 33.587-27.226 60.8-60.8 60.8zM633.6 219.994h-516.8v456h516.8v-456zM907.2 288.166l-159.834 159.834 159.834 159.834v-319.667z" />
<glyph unicode="&#xe96c;" glyph-name="volume" d="M512 934.4h-60.8l-212.8-212.8h-152c-33.574 0-60.8-27.226-60.8-60.8v-425.6c0-33.574 27.226-60.8 60.8-60.8h152l212.8-212.8h60.8c33.574 0 60.8 27.226 60.8 60.8v851.2c0 33.574-27.226 60.8-60.8 60.8zM481.6 60.16l-205.44 205.44h-159.36v364.8h159.36l205.44 205.44v-775.68zM883.43 726.387c-8.934 8.96-20.634 13.44-32.358 13.44-11.61 0-23.245-4.416-32.154-13.235-17.856-17.754-17.958-46.643-0.218-64.512 57.062-57.408 88.499-133.44 88.499-214.080 0-80.627-31.437-156.659-88.499-214.080-17.754-17.869-17.638-46.758 0.218-64.512 8.896-8.806 20.531-13.235 32.154-13.235 11.725 0 23.424 4.48 32.358 13.453 74.125 74.662 114.97 173.53 114.97 278.374 0 104.858-40.845 203.712-114.97 278.387zM739.674 611.136c-8.55 7.155-18.931 10.662-29.274 10.662-13.030 0-25.971-5.555-34.97-16.294-16.179-19.328-13.645-48.064 5.645-64.243 27.789-23.27 43.725-57.267 43.725-93.248s-15.936-69.978-43.725-93.248c-19.302-16.179-21.824-44.915-5.645-64.243 8.998-10.752 21.952-16.294 34.97-16.294 10.342 0 20.723 3.494 29.274 10.65 48.512 40.653 76.326 100.109 76.326 163.136s-27.814 122.47-76.326 163.123z" />
<glyph unicode="&#xe96d;" glyph-name="wifi" d="M512.013 270.323c-49.050 0-88.832-39.782-88.832-88.819 0-49.050 39.795-88.845 88.832-88.845s88.832 39.795 88.832 88.845c0 49.037-39.782 88.819-88.832 88.819zM988.019 580.941c-118.822 141.35-292.326 222.413-476.006 222.413-183.693 0-357.171-81.062-475.994-222.413-15.795-18.765-13.363-46.784 5.427-62.579 8.32-7.002 18.445-10.406 28.544-10.406 12.672 0 25.254 5.389 34.035 15.846 101.875 121.19 250.573 190.707 407.987 190.707 157.389 0 306.112-69.53 407.987-190.707 8.806-10.458 21.376-15.846 34.035-15.846 10.099 0 20.211 3.418 28.531 10.406 18.803 15.782 21.235 43.814 5.453 62.579zM512.013 625.677c-131.2 0-255.117-57.894-339.994-158.848-15.782-18.765-13.363-46.784 5.44-62.579 8.32-7.002 18.445-10.406 28.544-10.406 12.672 0 25.242 5.376 34.035 15.846 67.93 80.806 167.066 127.155 271.974 127.155 104.922 0 204.045-46.349 271.987-127.155 8.794-10.47 21.376-15.846 34.035-15.846 10.086 0 20.198 3.418 28.531 10.406 18.803 15.782 21.222 43.814 5.44 62.579-84.864 100.941-208.794 158.848-339.994 158.848zM512.013 448c-78.771 0-153.126-34.739-203.994-95.283-15.782-18.765-13.35-46.784 5.44-62.592 8.32-6.976 18.445-10.406 28.531-10.406 12.659 0 25.254 5.376 34.035 15.846 33.946 40.397 83.52 63.603 135.974 63.603s102.016-23.206 135.974-63.603c8.806-10.47 21.376-15.846 34.048-15.846 10.086 0 20.198 3.43 28.531 10.406 18.803 15.795 21.222 43.827 5.44 62.592-50.842 60.544-125.21 95.283-203.981 95.283z" />
<glyph unicode="&#xe96e;" glyph-name="world" d="M512 934.4c-267.674 0-485.427-217.754-485.427-485.427 0-267.661 217.754-485.427 485.414-485.427 267.674 0 485.414 217.766 485.414 485.427 0.013 267.674-217.741 485.427-485.402 485.427zM136.422 339.379c-10.176 34.829-15.898 71.526-15.898 109.606s5.722 74.778 15.898 109.606h116.16c-4.301-35.162-6.784-71.744-6.784-109.606s2.483-74.432 6.784-109.606h-116.16zM178.253 245.414h91.52c12.787-51.648 30.157-98.33 51.558-138.022-58.778 32.947-107.968 80.64-143.078 138.022zM269.773 652.531h-91.52c35.11 57.344 84.301 105.088 143.078 138.035-21.402-39.693-38.771-86.362-51.558-138.035zM465.024 74.547c-38.758 27.635-75.11 87.974-98.637 170.867h98.637v-170.867zM465.024 339.379h-117.862c-4.646 34.342-7.411 70.874-7.411 109.606s2.752 75.264 7.411 109.606h117.862v-219.213zM465.024 652.531h-98.637c23.514 82.893 59.878 143.219 98.637 170.88v-170.88zM845.722 652.531h-91.482c-12.813 51.661-30.195 98.33-51.584 138.035 58.778-32.934 107.942-80.678 143.066-138.035zM558.963 823.411c38.746-27.648 75.11-87.987 98.637-170.88h-98.637v170.88zM558.963 74.547v170.867h98.637c-23.526-82.893-59.891-143.232-98.637-170.867zM676.838 339.379h-117.875v219.213h117.875c4.659-34.342 7.398-70.886 7.398-109.606s-2.739-75.277-7.398-109.606zM702.656 107.392c21.389 39.706 38.771 86.374 51.584 138.022h91.482c-35.123-57.382-84.288-105.075-143.066-138.022zM771.405 339.379c4.326 35.162 6.784 71.731 6.784 109.606s-2.458 74.445-6.784 109.606h116.147c10.202-34.829 15.91-71.539 15.91-109.606s-5.709-74.778-15.91-109.606h-116.147z" />
<glyph unicode="&#xe96f;" glyph-name="headset2" d="M242.074 178.202h-29.99c-102.605 0-179.955 77.35-179.955 179.955 0 102.618 77.35 179.955 179.955 179.955h29.99v-359.91zM182.093 474.829c-53.568-12.301-89.971-57.626-89.971-116.672s36.416-104.32 89.971-116.685v233.357zM811.917 178.202h-29.99v359.898h29.99c102.605 0 179.955-77.338 179.955-179.955-0.013-102.592-77.363-179.942-179.955-179.942zM841.907 474.829v-233.306c53.568 12.301 89.971 57.613 89.971 116.646 0.013 59.098-36.403 104.333-89.971 116.659zM841.907 28.237v59.994c14.938 0 29.99 9.318 29.99 29.99h59.994c0-51.29-38.694-89.984-89.984-89.984zM721.933 88.23h119.974v-59.994h-119.974v59.994zM647.731-32c-49.587 0-89.971 40.346-89.971 89.971 0 49.574 40.384 89.971 89.971 89.971 49.613 0 89.971-40.397 89.971-89.971 0-49.626-40.307-89.971-89.971-89.971zM647.731 87.962c-16.525 0-29.99-13.453-29.99-29.99 0-16.55 13.466-30.003 29.99-30.003 16.576 0 29.99 13.453 29.99 30.003-0.013 16.538-13.427 29.99-29.99 29.99zM841.907 597.914h-59.994c0 148.941-121.075 270.106-269.926 270.106-148.838 0-269.926-121.165-269.926-270.106h-59.994c0.026 181.99 148.058 330.086 329.933 330.086 181.888 0 329.907-148.096 329.907-330.086z" />
</font>
</defs>
</svg>
