
<svg version="1.1" xmlns="http://www.w3.org/2000/svg" viewBox="0 0 1000 180" xml:space="preserve">
	<path fill="#0069FF" d="M947.275 2.616h-11.137c-1.091 0-1.868.467-2.183 1.635l-5.92 21.263L925 36.106l-3.036-10.592L915.5 4.251c-.313-1.168-1.094-1.635-2.185-1.635h-6.229c-1.093 0-1.869.467-2.182 1.635l-6.542 21.808-2.571 9.113-2.491-9.034-5.839-21.886c-.313-1.168-1.013-1.635-2.18-1.635h-11.995c-1.4 0-2.104.779-1.637 2.181l16.979 51.017c.313 1.09 1.169 1.558 2.26 1.558h7.788c1.091 0 1.946-.545 2.258-1.635l9.192-29.285 9.735 29.362c.313 1.09 1.169 1.558 2.258 1.558h7.558c1.093 0 1.867-.468 2.26-1.558l16.979-51.016c.463-1.404-.237-2.183-1.641-2.183zm29.675 0h-19.47c-1.247 0-1.947.702-1.947 1.947v50.858c0 1.246.7 1.948 1.947 1.948h10.669c1.246 0 1.947-.702 1.947-1.948V43.35l6.15-.078C991.043 43.194 1000 35.017 1000 23.49c.004-12.229-8.719-20.874-23.05-20.874zm-1.011 27.963h-5.842V15.235h5.842c6.465 0 9.188 3.894 9.188 7.944 0 3.738-2.57 7.4-9.188 7.4z"/>
	<g fill="#162134">
		<path d="M87.056 174.9c0 2.266-1.22 3.482-3.48 3.482H4.789c-2.264 0-3.482-1.22-3.482-3.482v-20.545c0-2.268 1.22-3.482 3.482-3.482h78.787c2.263 0 3.48 1.218 3.48 3.482V174.9zM44.237 56.32v24.96l-.083-.001c-9.773 0-16.406 7.679-16.406 16.755 0 9.075 6.632 16.756 16.406 16.756 9.601 0 16.232-7.681 16.232-16.756l-.002-.201h27.752l.001.201c0 23.735-19.548 41.713-43.982 41.713C19.546 139.747 0 121.77 0 98.034s19.546-41.713 44.154-41.713l.083-.001z"/>
		<path d="M88.887 86.874H55.471V53.455h30.753c.706 0 1.384.282 1.883.78s.779 1.177.779 1.882l.001 30.757zm64.756-29.229c-1.222-.176-2.612-.176-4.006-.176-13.061 0-45.861.176-45.861.176-2.263 0-3.481 1.22-3.481 3.481v73.134c0 2.264 1.222 3.481 3.481 3.481h20.547c2.266 0 3.482-1.22 3.482-3.481V99.436c0-11.146 7.836-17.064 18.632-17.064 1.915 0 3.482.174 4.702.521 2.263.522 3.829-.349 4.004-2.787l1.458-18.631c.176-2.09-.695-3.657-2.958-3.83zm38.242 0c2.264 0 3.482 1.22 3.482 3.481v73.134c0 2.264-1.22 3.481-3.482 3.481h-20.547c-2.264 0-3.482-1.22-3.482-3.481V61.125c0-2.263 1.222-3.481 3.482-3.481l20.547.001zm-10.621-12.539c9.751 0 17.586-6.791 17.586-16.716 0-9.751-7.835-16.716-17.586-16.541-9.752.174-17.239 6.79-17.239 16.541 0 9.926 7.486 16.716 17.239 16.716zm79.198 96.509v-33.418h33.417v30.756c0 1.473-1.189 2.662-2.66 2.662h-30.757zM337.609 5.728c.001-1.719-1.392-3.11-3.106-3.111H313.23c-1.717-.001-3.109 1.39-3.111 3.106v21.09h27.494l-.004-21.085z"/>
		<path d="M290.268 13.415h-20.547c-2.265 0-3.482 1.218-3.482 3.482v47.71c-5.399-5.05-12.711-8.532-21.767-8.532-22.29 0-38.307 17.935-38.307 41.616 0 23.683 16.889 40.049 39.18 40.049h4.613v-23.348c-9.507-.363-16.106-7.375-16.106-16.701 0-9.404 6.965-16.715 16.891-16.715 10.446 0 16.891 7.315 16.891 16.715h26.119V16.899c-.004-2.266-1.222-3.484-3.485-3.484zm69.128 42.661c-9.055 0-16.369 3.482-21.767 8.532V37.136h-27.513v97.124c0 2.264 1.223 3.48 3.483 3.48h44.925c22.29-.002 39.18-16.367 39.18-40.051-.001-23.678-16.02-41.613-38.308-41.613zm-6.269 58.332c-10.448 0-16.891-6.965-16.891-16.717 0-9.404 6.442-16.715 16.891-16.715 9.925 0 16.89 7.315 16.89 16.715 0 9.58-6.965 16.717-16.89 16.717zM463.35 81.79v14.335c0 10.275-5.746 16.717-14.453 16.717-8.009 0-13.929-6.615-13.929-16.717v-35c0-2.263-1.22-3.481-3.482-3.481h-20.547c-2.265 0-3.481 1.22-3.481 3.481v40.747c0 22.462 16.02 35.868 37.959 35.868h41.966c2.264 0 3.48-1.219 3.48-3.48V81.789l-27.513.001zm66.166-24.145h-20.545c-2.268 0-3.483 1.22-3.483 3.481v73.134c0 2.264 1.22 3.481 3.483 3.481h20.545c2.265 0 3.482-1.22 3.482-3.481V61.125c.002-2.262-1.217-3.48-3.482-3.48zm-10.62-45.796c-9.75.174-17.24 6.79-17.24 16.541 0 9.926 7.486 16.716 17.24 16.716 9.75 0 17.584-6.791 17.584-16.716.001-9.751-7.834-16.716-17.584-16.541zm159.781-6.121c.002-1.719-1.391-3.11-3.107-3.111h-21.271c-1.72 0-3.109 1.393-3.109 3.111v21.084h27.491V5.728h-.004z"/>
		<path d="M487.768 47.268h-21.27c-1.718 0-3.109 1.393-3.109 3.109v21.086h27.492V50.382c-.001-1.72-1.395-3.114-3.113-3.114zm163.465-10.132v27.472c-5.4-5.05-12.711-8.532-21.766-8.532-22.291 0-38.31 17.935-38.31 41.615 0 23.684 16.892 40.051 39.183 40.051h44.925c2.262 0 3.481-1.219 3.481-3.48V37.136h-27.513zm-15.496 77.272c-9.927 0-16.893-7.139-16.893-16.717 0-9.404 6.966-16.715 16.893-16.715 10.447 0 16.891 7.315 16.891 16.715-.003 9.752-6.445 16.717-16.891 16.717zm-84.634 30.897c0 1.719 1.396 3.109 3.109 3.109h21.273c1.718-.001 3.107-1.395 3.107-3.109v-21.086H551.1l.003 21.086zm24.036-131.89h-20.545c-2.267 0-3.483 1.218-3.483 3.482v96.996h27.513V16.9c-.003-2.267-1.221-3.485-3.485-3.485zm197.807 85.148c0-24.029-15.845-42.486-41.094-42.486-24.727 0-42.488 18.284-42.488 41.615 0 23.334 19.156 41.617 44.752 41.617 16.542 0 26.643-5.049 31.69-9.055 1.742-1.395 1.916-3.135.87-4.875l-7.486-13.582c-1.22-2.091-2.96-2.438-4.874-1.046-3.312 2.438-8.531 5.573-17.065 5.573-10.102 0-17.239-4.877-20.199-11.32h52.237c2.091 0 3.135-1.219 3.482-3.309.175-1.216.175-2.088.175-3.132zm-40.047-21.067c7.139 0 12.362 4.525 13.756 10.274l.175.696h-29.95c2.435-7.664 8.183-10.97 16.019-10.97zm103.832-19.678c-1.22-.175-2.614-.175-4.006-.175h-45.849c-2.265 0-3.482 1.22-3.482 3.481v73.134c0 2.264 1.219 3.48 3.482 3.48h20.548c2.262 0 3.48-1.219 3.48-3.48V99.434c0-11.146 7.835-17.066 18.63-17.066 1.916 0 3.483.176 4.704.523 2.262.522 3.829-.349 4.003-2.787l1.444-18.457c.18-2.087-.692-3.655-2.954-3.829z"/>
	</g>
</svg>
