<?xml version="1.0" encoding="utf-8"?>
<!-- Generator: Adobe Illustrator 21.0.0, SVG Export Plug-In . SVG Version: 6.00 Build 0)  -->
<svg version="1.1" id="Layer_1" xmlns="http://www.w3.org/2000/svg" xmlns:xlink="http://www.w3.org/1999/xlink" x="0px" y="0px"
	 viewBox="0 0 50.6 69.1" style="enable-background:new 0 0 50.6 69.1;" xml:space="preserve">
<style type="text/css">
	.st0{fill:#FFFFFF;}
</style>
<path class="st0" d="M50.6,25.3C50.6,11.3,39.3,0,25.3,0S0,11.3,0,25.3C0,32,2.6,38.1,6.9,42.6c1.3,1.5,2.8,3,4.6,4.7
	c10.7,10.2,12.7,18.6,13.1,21.1c0.1,0.4,0.4,0.7,0.8,0.7s0.7-0.3,0.8-0.7c0.4-2.5,2.4-10.8,13.1-21c1.9-1.8,3.4-3.4,4.8-4.9
	C48.1,37.9,50.6,31.9,50.6,25.3z"/>
</svg>
